<svg version="1.1" xmlns="http://www.w3.org/2000/svg" viewBox="0 0 1555.101193829362 643.604814271026" width="1555.101193829362" height="643.604814271026" filter="invert(93%) hue-rotate(180deg)">
  <!-- svg-source:excalidraw -->
  
  <defs>
    <style>
      @font-face {
        font-family: "Virgil";
        src: url("https://unpkg.com/@excalidraw/excalidraw@0.13.0-4d26993/dist/excalidraw-assets/Virgil.woff2");
      }
      @font-face {
        font-family: "Cascadia";
        src: url("https://unpkg.com/@excalidraw/excalidraw@0.13.0-4d26993/dist/excalidraw-assets/Cascadia.woff2");
      }
    </style>
  </defs>
  <rect x="0" y="0" width="1555.101193829362" height="643.604814271026" fill="#e7f5ff"></rect><g stroke-linecap="round" transform="translate(275.66550102801335 94.45217952538167) rotate(0 151.5 265)"><path d="M0 0 C0 0, 0 0, 0 0 M0 0 C0 0, 0 0, 0 0 M2.18 9.65 C-0.25 12.02, 7.16 3.82, 7.5 2.27 M-0.42 11.85 C5.08 7.61, 7.51 1.42, 12.08 0.32 M0.7 22.4 C6.53 14.25, 11.25 10.76, 24.55 2.23 M1.44 26.07 C9.83 15.42, 16.16 7.41, 22 -0.76 M2.03 32.89 C14.81 24.55, 29.06 8.3, 29.28 3.5 M-0.88 35.33 C7.03 27.3, 14.91 18.43, 30.88 -0.72 M-3.37 45.69 C12.36 38.23, 15.76 27.81, 40.25 -3.02 M-0.84 48.96 C17.09 28.71, 32.53 10.94, 43.12 -1.46 M-3.24 59.31 C22.64 38.48, 40.76 9.18, 50.85 2.34 M1.65 60.53 C16.15 43.04, 34.01 22.18, 53.34 -0.2 M-0.63 74.88 C21.35 47.61, 42.81 25.84, 60.23 0.88 M0.91 72.59 C24.19 42.31, 47.91 14.68, 64.8 -1.52 M1.18 85.1 C24.98 59.37, 54.44 26.82, 73.06 3.72 M-1.05 85.33 C28.1 53.8, 55.17 23.72, 75.58 -1.51 M-2.23 95.31 C22.8 71.89, 49.64 37.45, 83.31 0.08 M-1.09 97.21 C24.44 69.14, 52.46 34.5, 84.69 0.16 M1.96 108.65 C34.74 68.65, 66.83 34.62, 97.93 1.57 M1.81 109.83 C40.69 63.6, 77.43 22.03, 94.19 0.04 M-0.36 118.92 C41.98 79.24, 78.38 28.63, 104.69 -1.65 M0.78 120.27 C24.06 91.78, 48.1 60.91, 107.29 -1.14 M0.12 135.73 C44.28 82.63, 88.62 31.7, 119.19 4.23 M1.75 134.05 C27.45 107.5, 52.91 76.27, 117.88 2.09 M3.22 149.55 C42.61 102.52, 81.68 56.04, 123.29 1.83 M0.99 145.66 C45.1 90.29, 95.39 34.83, 127.23 0.82 M-1.43 160.5 C34.92 113.15, 75.31 75.42, 140.52 -0.49 M-1.34 159.19 C28.4 126.51, 57.09 93.75, 138.1 0.2 M-0.77 172.4 C34.81 131.58, 68.9 94.14, 144.93 0.07 M-1 169.64 C48.79 108.69, 100.23 52.58, 147.94 0.2 M-1.15 184.35 C66.25 113.36, 126.58 35.86, 157.79 -1.07 M1.04 181.98 C35.29 143.17, 73.73 101.8, 157.65 0.33 M-2.95 193.44 C56.69 133.28, 105.73 71.64, 167.99 1.93 M0.36 193.87 C37.68 156.57, 73.55 113.24, 169.56 -0.3 M-2.36 204.98 C52.39 145.27, 101.17 90.43, 180.56 1.96 M0.04 206.66 C50.12 153.7, 97.42 97.79, 179.56 0.06 M1.01 217.13 C71.15 141.83, 139.9 57.04, 189.98 2.32 M-1.6 219.48 C40.31 170.43, 83.14 120.43, 191.68 -0.71 M1.24 233.76 C45.91 181.26, 96.07 121.01, 199.06 0.69 M-0.39 232.39 C74.56 141.88, 151.09 54.03, 200.97 0.64 M0.17 242.74 C60.69 168.05, 130.89 92.42, 211.83 -1.35 M-0.58 244.73 C51.95 182.09, 104.19 121.72, 213.18 0.52 M2.82 256.54 C53.56 198.52, 102.25 140.67, 222.38 -1.53 M1.02 255.22 C89.58 156.84, 176.91 57.56, 222.92 0.43 M0.63 269.94 C90.3 163.79, 181.47 56.42, 231.93 0.52 M-0.82 267.75 C86.48 171.66, 172.54 69.71, 232.46 0.73 M-2.13 281.48 C64.07 209.3, 125.69 138.33, 242.48 1.29 M-0.33 281.24 C95.89 167.48, 194.09 55.74, 244.22 0.83 M2.11 292.46 C56.64 226.29, 110.96 165.43, 256.45 1.45 M-0.32 292.31 C67.3 216.15, 136.16 137.96, 254.88 -0.71 M1.69 303.77 C95.92 189.2, 192.73 80.15, 262.94 -1.62 M0.68 304.34 C51.81 243.35, 107.11 181.74, 264.49 0.67 M1.99 315.73 C93.08 212.82, 184.62 105.76, 274.76 -2.23 M0.17 316.97 C62.98 241.3, 125.77 169.62, 274.83 -0.81 M0.72 326.85 C67.98 249.33, 139.29 169.09, 286.43 1.66 M1.3 329.42 C100.28 214.9, 199.54 99.97, 285.99 -0.73 M0.45 340.96 C62.78 272.62, 123.48 203.38, 297.45 -0.37 M0.29 341.37 C106.07 217.93, 215.45 93.22, 297.71 -0.37 M-1.18 354.01 C65.53 282.05, 127.68 205.36, 305.45 1.72 M0.74 353.58 C78.92 263.08, 158.27 171.43, 304.91 2.27 M0.03 365.28 C77.4 275.89, 159.26 186.66, 307.01 14.69 M0.61 366.41 C122.02 229.53, 241.1 92.58, 305.27 13.51 M-1.32 379.45 C76.02 293.35, 148.55 208.31, 305.51 27 M-0.25 377.12 C84.63 281.98, 168.18 183.98, 306.07 27.34 M1.11 391.03 C78.21 297.65, 156.49 207.48, 304.78 38.37 M0.21 389.59 C69.94 311.18, 135.04 233.36, 306.22 38.66 M-1.1 401.74 C102.76 286.99, 204.81 170.39, 306.25 52.75 M-0.73 402.23 C77.76 314.18, 156.37 224.43, 305.41 50.66 M0.72 415.77 C92.05 308.74, 183.45 205.23, 304.12 62.67 M0.28 414.05 C119.47 281.76, 238.82 144.61, 305.9 62.65 M-0.98 427.96 C100.67 310.09, 205.85 191.77, 306.52 73.83 M0.61 427.3 C107.79 301.37, 217.31 176.45, 305.54 74.41 M1.74 437.35 C75 354.91, 146.33 272.4, 305.55 89.53 M0.69 438.91 C72.63 357.03, 144.48 274.87, 305.32 88.69 M-1.98 450.65 C101.63 333.82, 206.73 213.18, 305.32 98.62 M0.06 451.09 C74.18 367.31, 148.89 282.07, 305.77 99.03 M0.9 462.86 C77.11 380.23, 148.9 294.92, 306.96 111.25 M-0.91 462.74 C95.6 351.17, 191.04 239.88, 305.72 112.49 M-0.55 474.71 C81.91 379.25, 167.19 279.64, 307.46 124.85 M-0.31 475.81 C94.76 368.35, 188.66 260.22, 305.94 124.63 M1.42 487.96 C78.35 397.43, 153.59 314.4, 306.23 134.15 M-0.24 488.49 C121.24 352.7, 236.87 217.19, 305.82 136.68 M-0.38 500.74 C95.51 391.5, 188.87 281.29, 304.31 148.52 M0.84 499.64 C71.34 420.93, 140.46 341.21, 305.46 148.91 M0.39 513.91 C91.74 403.06, 186.7 296.96, 306.91 161.62 M-0.75 513.08 C61.72 435.9, 127.67 361.58, 305.65 161.22 M0.48 522.74 C73.49 434.19, 150.59 346.8, 304.68 172.51 M0.68 525.41 C62.95 448.37, 126.23 374.2, 304.9 172.14 M4.65 534.13 C73.71 453.01, 146.88 369.45, 305.54 184.56 M4.06 532.18 C120.14 403.59, 234.25 272.38, 304.81 184.84 M14.45 531.94 C118.83 416.63, 218.84 296.75, 304.52 197.23 M13.38 533.4 C120.95 413.07, 225.77 292.41, 305 196.92 M22.81 534.09 C130.92 408.9, 236.5 291.15, 305.39 208.46 M24.72 532.89 C102.17 442.48, 177.92 356.46, 305.28 210.31 M33.16 531.35 C119.13 439.52, 200.35 345.99, 303.67 221.95 M35.99 532.09 C113.8 441.51, 193.13 349.65, 305.25 222.43 M43.63 534.21 C99.94 473.25, 157.81 408.58, 307.31 233.36 M46.21 533.06 C121.39 449.16, 194.58 362.82, 305.55 234.67 M55.12 532.54 C111.45 469.05, 163.83 407.03, 304.42 246.37 M57.17 533.72 C140.41 431.92, 225.13 333.28, 305.36 244.98 M66.81 533.27 C156.7 432.16, 247.58 325.56, 307.7 258.23 M67.9 531.68 C120.76 468.49, 175.69 404.4, 305.11 257.91 M75.6 530.63 C143.17 448.84, 217.79 371.04, 306.98 272.21 M78.05 532.14 C157.63 441.47, 236.1 352, 304.81 271.11 M86.43 533.43 C137.63 474.14, 186.61 415.87, 304.81 282.34 M89.43 533.02 C156.91 453.22, 226.05 373.53, 305.53 284.06 M96.74 531.45 C167.46 450.54, 242.19 364.84, 303.49 296.47 M99.5 531.78 C145.2 477.4, 191.56 422.95, 306.67 294.99 M112.4 529.99 C163.87 467.16, 222.59 404.84, 307.74 309.31 M110.87 531.21 C181.52 448.3, 254.36 361.24, 304.38 305.84 M118.65 531.88 C164.32 483.57, 209.79 436.22, 305.86 316.12 M118.68 531.2 C169.74 474.52, 222.83 416.11, 307.05 317.75 M132.22 534.63 C194.77 452.2, 262.35 375.06, 303.66 329.74 M129.18 532 C174.53 486.3, 215.21 434.62, 303.88 331.5 M137.86 536.35 C177.82 495.06, 212.46 452.93, 304.22 344.78 M140.1 534.26 C182.46 487.76, 219.47 446.18, 305.01 344.16 M152.27 530.95 C198.17 475.33, 251.36 419.01, 302.77 356.36 M150.09 533.83 C204.56 468.17, 262.1 404.25, 305.65 356.68 M162.8 535.53 C196.37 488.59, 230.88 448.18, 309.03 367.54 M163.72 531.36 C214.11 471.04, 269.18 412.44, 305.74 367.55 M171.73 534.36 C207.04 495.48, 241.79 460.5, 304.86 381.73 M172.12 533.89 C222.05 474.68, 272.42 420.12, 304.01 381.11 M183.77 536.82 C217.8 494.27, 257.03 446.54, 309.11 396.43 M182.19 533.57 C217.34 494.64, 249.13 455.64, 306.33 394.25 M190.61 530.62 C237.48 479.59, 283.42 428.14, 309.21 401.9 M195.04 531.56 C234.79 486.36, 278.68 438.28, 305.05 403.07 M201.19 533.34 C247.48 488.39, 284.42 444.87, 308.12 416.11 M205.94 532.31 C231.02 502.69, 257.47 471.64, 306.47 416.71 M218.04 532.21 C250.64 488.7, 283.93 452.26, 308.09 424.97 M215.03 534.69 C252.27 494.78, 285.82 452.32, 304.94 429.64 M229 536.61 C260.58 495.29, 289.29 461.51, 301.76 443.51 M225.38 531.95 C249.7 503.18, 274.52 475.49, 304.19 442.35 M238.92 534.23 C254.02 516.77, 266.63 503.69, 306.5 453.1 M237.11 531.58 C259.21 505.12, 280.49 478.97, 306.12 454.18 M245.42 535.4 C268.89 506.14, 291.75 478.39, 304.23 466.21 M245.5 531.25 C264.77 508.68, 286.42 489.86, 304.94 463.78 M254.65 529.26 C274.27 517.6, 284.23 497.65, 307.82 479.68 M259.16 534.61 C268.85 516.49, 284.59 502.74, 303.94 477.91 M265.02 536.1 C282.22 517.52, 290.94 504.12, 304.15 487.67 M270.09 531.21 C280.65 517.53, 293.4 504.45, 304.99 488.1 M274.98 531.51 C283.77 523.64, 297.7 515.37, 301.21 502.73 M279.87 532.35 C287.58 522.67, 294.78 510.36, 305.95 503.26 M290.74 530.72 C294.65 525.72, 299.47 524.38, 306.49 516.97 M289.75 530.98 C293.4 528.27, 298.1 522.91, 305.46 514.55 M300.95 531.09 C301.98 530.99, 303.98 528.36, 306 526.69 M299.64 532.99 C301.83 530.87, 301.81 530.22, 305.33 527.06" stroke="#ced4da" stroke-width="1" fill="none"></path><path d="M0.54 0.69 C113.09 -1.12, 222.67 0.84, 305.18 2.71 M0.19 0 C62.89 1.81, 126.77 3.02, 301.58 -0.86 M301.96 0.45 C298.64 147.18, 299.94 294.18, 303.72 529.52 M303.55 -0.02 C300.91 123.68, 301.58 247.91, 303.24 529.38 M305.65 531.58 C233.2 533.14, 158.58 529.76, -1.59 529.77 M303.83 530.19 C196.45 533.99, 87.26 532.94, -1.38 530.74 M1.2 529.59 C-4.88 344.68, -3.96 161.1, 0.21 0.66 M-0.14 530.21 C1.38 328.88, 2.39 127.86, 0.69 -0.46" stroke="#000000" stroke-width="2" fill="none"></path></g><g stroke-linecap="round" transform="translate(856.2606770185926 96.19976995526997) rotate(90.00752323040167 151.5 265)"><path d="M0 0 C0 0, 0 0, 0 0 M0 0 C0 0, 0 0, 0 0 M2.57 14.3 C-0.32 10.53, 5.82 4.53, 10.4 -0.61 M1.55 10.95 C4.16 7.19, 7.47 3.48, 9.14 -0.14 M1.46 22.36 C11.16 18.79, 14.87 4.7, 18.63 0.53 M-0.73 25.34 C8.65 16.92, 15.66 8.69, 19.6 -0.09 M-3.5 39.46 C9.42 19.2, 22.47 11.33, 32.09 -2.56 M0.18 37.15 C8.18 25.35, 16.56 17.88, 31.88 1.02 M-3.73 46.42 C14.83 37.01, 29.28 20.2, 39.31 0.18 M1.47 47.78 C11.57 35.64, 23.1 21.3, 42.21 1.06 M-3.7 63.63 C9.09 50.4, 25.6 34.74, 56.21 -0.96 M0.8 61.63 C16.83 45.25, 30.51 25.76, 53.14 1.32 M-1.96 72.83 C16.27 55.29, 23.98 43.48, 61.68 0.66 M1.45 74.79 C22.3 47.64, 42.49 22.44, 63.24 -1.66 M-0.05 86.09 C27.99 56.71, 58.59 18.24, 77.41 0.3 M1.69 83.56 C17.13 65.65, 34.51 44.2, 73.27 -0.21 M-3.36 94.87 C21.52 64.17, 54.41 38.61, 87.61 2.05 M0.37 97.17 C30.04 62.57, 60.46 28.79, 84.3 0.36 M-2.83 111.18 C22.24 83.97, 43.58 56.6, 94.76 -0.88 M1.58 110.58 C30.99 74.19, 61.52 38.86, 95.82 1.64 M-3.04 120.42 C32.44 81.79, 71.53 37.21, 103.37 2.05 M0.86 120.9 C23.77 94.04, 46.19 66.67, 107.86 -0.04 M4.05 130.59 C30.53 94.18, 68.01 58.19, 119.06 3.77 M1.97 132.25 C42.63 84.82, 84.71 31.98, 114.48 -0.95 M-1.7 145.27 C30.51 111.6, 63.59 80.06, 126.95 -3.24 M-1.66 144.38 C33.46 107.16, 71.23 67.22, 128.51 -1.1 M2.1 160.44 C50.24 94.32, 103.42 33.83, 135.69 -1.83 M-1.31 157.5 C34.97 122.4, 66.3 80.88, 135.94 0.14 M-3.16 174.23 C33.57 136.61, 64.76 98.34, 146.88 1.41 M-0.81 172.03 C37.78 129.9, 71.05 92.68, 147.71 0.76 M0.89 180.77 C48.28 123.39, 102.95 65.31, 156.03 0.86 M-1.27 183.61 C54.83 116.08, 113.99 50.27, 158.87 1.17 M0.88 197.21 C41.11 143.42, 81.86 95.9, 172.5 -0.01 M1.73 193.35 C61.89 122.12, 126.24 52.48, 169.46 0 M-0.51 208.12 C46.4 155.89, 92.12 107.63, 179.77 1.18 M-0.17 207.71 C67.49 128.48, 135.59 53.07, 179.04 0.64 M0.13 222.62 C55.77 156.57, 114.92 86.58, 193.52 2.99 M-1.05 220.19 C52.78 159.04, 104.63 97.58, 191.44 1.36 M-2.48 230.12 C78.16 137.99, 158.75 46.29, 204.03 -1.89 M0.71 230.79 C74.45 147.85, 149.7 63.02, 201.03 -1.04 M-2.3 244.13 C86.56 149.23, 168.36 54.42, 213.71 -0.34 M1 243.42 C54.87 180, 109.78 116.41, 212.56 0.08 M2.08 255.43 C87.18 151.71, 173.44 53.72, 224.16 -2.48 M0.07 257.09 C88.82 159.36, 173.11 59.8, 222.06 0.64 M2.35 270.33 C94.07 161.38, 183.5 58.02, 231 1.27 M0.03 267.34 C70.65 184.82, 140.96 104.49, 232.56 0.52 M1.31 281.58 C51.66 222.58, 100.1 167.72, 244.55 -0.32 M0.19 279.96 C80.89 186.96, 159.25 95.8, 244.32 0.34 M-1.05 294.29 C94.33 181.85, 191.18 69.58, 253.75 0.28 M-1.01 291.86 C82.34 196.26, 164.75 105.03, 254.16 -1.14 M-1.66 302.85 C79.33 214.99, 157.31 120.53, 266.34 1.03 M0.86 305.84 C71.12 221.47, 145.59 138.24, 264.17 0.04 M-1.58 318.64 C86.8 221.73, 168.06 126.44, 274.88 -1.22 M1.12 316.04 C90.58 212.25, 182.01 107.93, 275.33 -0.99 M-1.7 328.29 C92.87 217.04, 191.34 107.68, 284.33 -0.05 M0.78 328.71 C96.61 217.82, 192.59 105.37, 286.73 0.21 M0.34 340.76 C98.57 228.82, 196.94 117.67, 297.54 0.96 M-0.13 340.88 C81.83 249.7, 163.12 156.21, 297.04 -0.2 M0.76 351.98 C80.5 257.39, 163.53 161.51, 306.25 2.16 M-0.74 354.15 C67.81 277.56, 134.37 200.22, 305.49 2.58 M1.46 364.09 C91.26 258.02, 180.39 157.77, 304.4 15.86 M-0.38 365.45 C117.37 232.54, 232.53 98.25, 306.06 14.84 M0.6 376.91 C64.39 301.69, 132.73 223.73, 305.89 27.78 M-0.42 377.17 C76.87 293.7, 153.32 207.4, 305.96 26.37 M-0.53 390.5 C72.53 301.65, 150.22 216.76, 305.52 38.01 M-0.3 390.32 C59.79 316.56, 123.1 244.99, 305.46 38.15 M-1.97 404.23 C77.48 317.13, 150.76 231.92, 305.41 50.36 M-0.92 403.48 C103.81 286.48, 206.91 168.17, 305.38 51.56 M1.05 415.72 C86.63 312.55, 173.51 208.88, 306.49 63.9 M0.83 415.21 C64.11 345.09, 126.13 274.47, 305.15 63.46 M-0.51 427.28 C104.16 306.04, 208.27 190.11, 304.14 75.7 M-0.04 426.68 C69.48 345.08, 141.21 263.92, 304.97 74.19 M-1.44 437.55 C112.21 311.96, 222.8 183.08, 305.62 87.18 M-0.29 438.59 C104.63 316.73, 207.05 197.36, 306.12 88.28 M-1.96 452.28 C72.54 369.68, 144.52 286.39, 307.05 99.37 M0.33 450.81 C88.68 353.8, 176.72 253.37, 305.41 100.41 M-1.59 464.9 C76.2 378.73, 151.63 290.99, 303.98 112.05 M-1.04 462.93 C92.2 357.82, 183.19 253.5, 305.02 112.68 M0.47 474.04 C66 401.12, 128.29 327.12, 304.82 122.71 M-0.51 475.13 C73.76 390.67, 148.07 305.05, 305.14 124.18 M0.59 486.07 C114.24 356.56, 229.3 227.43, 304.53 136.54 M-0.33 486.85 C79.82 399.07, 158.22 308.77, 306.07 135.42 M0.83 499.53 C91.41 397.72, 181.48 294.27, 305.76 147.19 M0.61 499.41 C87.14 397.44, 173.1 299.28, 304.92 148.93 M0.88 511.45 C118.81 373.54, 238 235.75, 306.73 161.29 M-0.26 512.99 C93.83 403.08, 190.55 290.85, 304.69 160.82 M0.62 523.65 C70.01 443.31, 138.11 363.1, 304.53 172 M-0.08 525.38 C111.2 391.32, 225.73 262.55, 305.78 172.43 M2.93 534.42 C66.31 460.5, 132.88 383.97, 304.86 183.53 M2.42 532.71 C85.61 436.44, 170.91 339.52, 305.98 185.56 M13.62 533.1 C104.28 424.86, 200.71 319.31, 306.87 195.57 M13.4 533.05 C96.56 432.93, 181.88 333.14, 306.25 197.58 M25.34 530.88 C133.27 409.7, 241.91 286, 305.45 209.88 M25.24 533.37 C97.31 449.57, 171.52 364.77, 305.47 209.33 M35.2 531.57 C91.08 470.71, 147.43 402.52, 305.62 220.99 M35.25 533.81 C102.91 457.03, 170.1 380.49, 306.14 222.78 M45.86 533.17 C118.36 448.41, 194.86 365.12, 306.97 235.68 M46 531.75 C122.02 444.32, 198.22 357.49, 305.2 234.85 M57.29 533.78 C124.27 449.33, 192.44 373.85, 305.1 246.21 M55.99 533.12 C116.3 462.19, 173.7 395.45, 306.63 246.85 M65.82 534.29 C151.75 438.37, 230.8 342.4, 304.87 255.51 M67.47 531.7 C136.53 452.68, 205.32 369.87, 306.11 258.97 M78.9 531.46 C128.72 473.7, 182.18 409.68, 305.99 272.84 M78.2 532.41 C138.85 462.14, 200.3 392.58, 305.48 270.63 M90.17 530.76 C132.79 479.64, 177.8 426.25, 304.4 282 M87.39 531.94 C155.36 451.25, 225.17 371.27, 304.81 282.53 M98.88 534.25 C172.1 452.87, 243.47 365.22, 304 294.98 M97.5 533.84 C177.54 446.18, 255.93 359.44, 304.75 296.15 M111.06 531.1 C155.34 480.42, 196.67 427.69, 303.49 304.54 M110.64 532.24 C171.35 461.91, 234.07 391.54, 305.4 307.35 M122.22 534.98 C159.77 483.71, 204.49 428.8, 306.53 321.06 M120.86 531.21 C188.34 453.83, 258.24 372.81, 306.98 318.32 M127.15 536.05 C186.44 471.13, 239.6 406.38, 302.87 329.47 M129.46 531.6 C189.62 464.37, 248.84 395.8, 304.59 333.16 M141.98 535.99 C175.21 490.4, 212.85 451.5, 307.51 343.68 M141.11 533.64 C194.37 473.62, 248.27 415.9, 304.86 345.09 M149.48 531.74 C193.5 485.94, 229.9 441.41, 306.81 352.86 M151.72 531.51 C205.19 468.83, 258.91 406.41, 305.19 356.23 M158.65 535.82 C213.46 467.22, 269.85 401.7, 304.92 366.09 M162.23 533.22 C199.36 490.29, 234.85 450.72, 304.01 368.72 M172.29 533.33 C212.72 489.08, 252.06 443.74, 303.7 378.15 M173.4 531.36 C211.39 491.33, 247.98 451.53, 304.93 379.01 M185.97 533.17 C230.46 481.31, 270.39 429.03, 304.72 389.9 M184.14 533.82 C212.46 501.42, 240.3 465.68, 303.76 392.15 M193.05 530.09 C227.22 497.54, 262.1 453.76, 304.97 404 M192.82 531.4 C218.73 502.38, 246.84 469.33, 304.61 405.27 M202.28 530.88 C235.01 495.15, 270.1 455.01, 306.26 416.11 M204.17 531.4 C239.73 490.75, 276.05 454.35, 305.56 418.03 M213.22 534.93 C254.4 492.69, 284.71 452.34, 307.12 429.03 M215.01 534.44 C234.5 512.25, 251.94 489.69, 303.99 430.28 M223.96 530.46 C257.15 495.86, 282.22 467.03, 301.68 441.38 M224.46 534.14 C245.32 513.05, 263.27 491.2, 306.1 442.5 M238.85 530.79 C251.12 506.38, 278.13 490.24, 306.07 456.91 M236.09 533.02 C260.97 504.93, 283.45 480.04, 303.58 452.68 M244.27 530.6 C263.02 509.57, 284.81 490.33, 306.24 469.22 M247.98 534.35 C261.69 516.04, 273.18 500.24, 303.82 464.7 M256.37 534.18 C281.02 510.49, 300.04 485.75, 308.29 478.99 M258.91 534.04 C274.21 511.6, 292.58 491.59, 306.69 477.21 M264.84 535.64 C283.15 513.74, 293.45 500.65, 305.61 491.01 M266.46 532.53 C274.72 525.01, 284.83 514.46, 305.97 488.25 M280.62 531.24 C289.31 522.33, 295.37 509.03, 301.96 503.2 M277.14 534.62 C287.4 521.83, 293.18 515.74, 306.84 503.85 M287.7 531.54 C298.3 528.69, 302.72 523.19, 305.84 515.79 M288.5 533.39 C294.47 526.51, 299.6 524.24, 306.62 514.93 M299.65 533.06 C300.11 531.2, 301.79 528.5, 304.2 525.6 M299.84 533.18 C301.16 531, 303.15 528.91, 305.27 526.22" stroke="#ced4da" stroke-width="1" fill="none"></path><path d="M-0.78 -1.46 C81.41 1.63, 166.3 -1.92, 305.86 1.45 M-0.41 0.28 C92.33 -0.01, 185.79 -1.38, 303.44 1.1 M304.18 0.25 C300.14 128.2, 300.56 260.4, 303.37 528.4 M302.72 0.72 C299.9 204.09, 298.38 407.11, 303.02 530.61 M302.07 531.63 C209.79 529.57, 114.38 526.99, -1.54 529.6 M304 529.89 C234.09 526.42, 164.76 526.57, 0.29 530.22 M0.61 531.23 C-1.96 366.92, -0.98 205.87, 1.31 0.71 M-0.38 530.5 C-3.74 416.76, -2.84 304.53, 0.21 0.36" stroke="#000000" stroke-width="2" fill="none"></path></g><g transform="translate(293.34805332111154 118.35610281442254) rotate(0 88.5 17.5)"><text x="0" y="25" font-family="Virgil, Segoe UI Emoji" font-size="28px" fill="#000000" text-anchor="start" style="white-space: pre;" direction="ltr">Welcome to...</text></g><g transform="translate(770.1986518588583 229.7428489615089) rotate(0 88.5 17.5)"><text x="0" y="25" font-family="Virgil, Segoe UI Emoji" font-size="28px" fill="#000000" text-anchor="start" style="white-space: pre;" direction="ltr">Welcome to...</text></g><g stroke-linecap="round" transform="translate(295.6035607520087 157.46428287167782) rotate(0 6.633347168139807 8.054778704169763)"><path d="M7.44 -1.69 L12.53 7.33 L3.87 19.13 L3.29 11.3" stroke="none" stroke-width="0" fill="#fa5252" fill-rule="evenodd"></path><path d="M9.17 -1.43 C9.17 2.26, 11.82 8.18, 14.89 10.98 M7 -0.46 C8.48 2.09, 12.05 6.88, 14.16 7.94 M12.89 8.38 C12.2 11.8, 9.31 15.73, 6.25 15.13 M13.57 9.85 C12.27 11.78, 9.22 13.37, 6.66 16.36 M6.45 14.93 C4.53 16.04, 4.2 12.77, 0.03 9.84 M6.72 16.98 C3.41 12.54, 2.48 10.01, 0.97 9.51 M2.24 10.39 C1.25 3.61, 6.87 4.41, 7.26 -0.53 M0.08 8.58 C0.83 7.56, 3.99 4.58, 7.28 -0.06" stroke="#000000" stroke-width="2" fill="none"></path></g><g stroke-linecap="round" transform="translate(772.4541592897554 267.67211336589116) rotate(0 6.633347168139835 8.054778704169763)"><path d="M10.34 -2.64 L16.69 5.83 L7.29 20.02 L2.32 12.57" stroke="none" stroke-width="0" fill="#fa5252" fill-rule="evenodd"></path><path d="M6.27 -0.01 C11.08 1.71, 13.79 4.72, 12.11 8.9 M7.68 -0.58 C9.5 3.99, 12.42 7.88, 13.98 9.98 M14.14 8.48 C9.66 12.96, 8.24 14.39, 6.85 16.61 M12.54 9.71 C11.7 10.47, 10.09 13.82, 7.67 15.41 M6.15 14.97 C4.68 14.04, 4.07 12.23, -1.56 7.52 M7.49 16.75 C6.09 15.03, 3.17 13.36, 0.31 8.67 M-1.79 8.16 C2.85 4.66, 4.52 5.3, 5.45 0.74 M-0.57 8.74 C2.1 6.26, 5.08 2.71, 7.96 0.4" stroke="#000000" stroke-width="2" fill="none"></path></g><g transform="translate(318.813947448768 158.40538420197288) rotate(0 31.5 10)"><text x="0" y="14" font-family="Virgil, Segoe UI Emoji" font-size="16px" fill="#000000" text-anchor="start" style="white-space: pre;" direction="ltr">location</text></g><g transform="translate(795.6645459865147 269.7921303490592) rotate(0 31.5 10)"><text x="0" y="14" font-family="Virgil, Segoe UI Emoji" font-size="16px" fill="#000000" text-anchor="start" style="white-space: pre;" direction="ltr">location</text></g><g stroke-linecap="round" transform="translate(300.2247031500597 193.82414759985926) rotate(0 80.27173674442236 76.89187414465724)"><path d="M6.77 44.31 C6.77 44.31, 6.77 44.31, 6.77 44.31 M6.77 44.31 C6.77 44.31, 6.77 44.31, 6.77 44.31 M2.26 62.05 C14.2 44.24, 27.09 34.59, 36.81 19.55 M2.85 63.18 C15.39 49.94, 28.28 33.41, 35.97 21.29 M-0.84 75.98 C19.25 54.92, 40.01 32.43, 61.59 8.14 M3.76 75.78 C26.11 46.54, 46.56 22, 64.5 3.05 M1.36 83.9 C29.17 56.1, 54.25 20.57, 71.1 8.17 M4.07 84.6 C26.42 60.57, 43.95 37.94, 72.55 5.92 M6.2 96.91 C26.84 67.45, 55.01 40.64, 83.33 1.51 M6.27 96.57 C21.46 73.95, 43.3 51.11, 85.87 2.41 M7.48 108.39 C40.93 67.46, 69.05 31.72, 98.79 5.23 M6.12 104.08 C34.82 77.55, 60.47 44.93, 94.93 4.04 M9.91 115.85 C33.69 88.29, 49.41 70.17, 103.42 7.03 M13.43 110.42 C33.46 82.23, 59.82 55.46, 104.14 8.35 M19.65 119.67 C47.03 79.13, 82.9 47.33, 112.16 11.92 M16.97 120.17 C41.18 91.64, 67.96 59.56, 109.81 9.24 M21.91 124.07 C62.44 83.79, 100.34 36.62, 118.18 10.53 M20.5 123.76 C58.03 79.56, 94.3 36.73, 119.76 12.88 M25.44 129.12 C52.31 94.12, 84.38 63.32, 127.94 11.6 M25.56 133.15 C64.76 94.64, 98.84 49.82, 126.76 13.84 M32.21 140.73 C59.39 101.72, 90.93 68.18, 134.29 25.22 M31.59 135.43 C59.15 106.89, 84.91 78.49, 131.97 21.95 M39.29 141.67 C69.4 102.16, 104.4 58.85, 140.09 26.06 M40.14 139.46 C63.97 113.77, 89.39 85.19, 139 29.16 M44.5 145.08 C81.71 104.59, 118.41 57.59, 142.13 30.67 M46.92 144.97 C62.67 123.14, 83.66 99.84, 144.13 34.43 M52.82 152.17 C89.21 109.31, 127.56 65.06, 149.44 42.68 M54.57 147.98 C82.03 120.69, 105.09 89.25, 149.07 40.63 M59.52 149.27 C90.78 114.02, 122.48 85.55, 149.78 50.58 M62.18 153.37 C92.2 123.66, 117.31 91.65, 153.77 47.89 M72.58 153.56 C100.28 119.16, 126.32 86.9, 153.96 50.71 M70.07 152.28 C107.45 114.71, 138.01 78.6, 159.12 52.19 M81.73 151.82 C101.8 124.35, 128.72 102.78, 165.03 59.03 M79.24 156.52 C104.81 125.38, 132.12 96.55, 162.54 60.82 M88.94 162.19 C118.79 123.77, 144.8 95.28, 167.29 69.31 M88.17 159.89 C113.44 129.27, 136 102.56, 165.35 70.18 M104.6 152.11 C116.07 138.67, 127.66 124.53, 166.15 82.5 M103.41 155.77 C120.28 134.51, 139.5 111.72, 163.02 82.72 M122.33 143.17 C135.61 127.43, 154.44 110.12, 162.33 94.32 M120.81 145.64 C128.78 133.48, 137.47 122.77, 161.71 98.22 M24.61 131.74 C24.61 131.74, 24.61 131.74, 24.61 131.74 M24.61 131.74 C24.61 131.74, 24.61 131.74, 24.61 131.74 M57.54 148.62 C35.23 130.77, 24.12 115.89, 5.9 105.31 M52.81 145.98 C42.05 135.78, 27.44 122.77, 6.46 104.19 M68.09 148.2 C57.45 140.97, 45.43 123.82, 8.16 102.48 M72.39 151.53 C51.29 132.26, 32.9 117.84, 12.7 98.09 M83.47 149.14 C61.55 132.39, 46.87 116.6, 7.4 83.11 M85.47 154.34 C66.45 133.45, 44.94 115.85, 6.93 85.86 M93.98 146.7 C73.55 131.04, 49.67 116.59, 6.17 72.1 M94.34 149.46 C73.27 129.63, 51.8 109.89, 1.81 71.48 M104.79 145.82 C82.13 125.99, 61.7 109.77, 1.39 60.29 M104.37 149.26 C64.71 116.51, 30.96 86.91, 5.99 61.22 M109.52 141.63 C72.56 111.91, 32.63 80.19, 9.84 54.53 M112.11 143.64 C74.43 109.88, 34.23 76.15, 8.02 53.2 M122.34 138.95 C96.9 124.4, 70.62 101.13, 10.9 44.77 M119.64 139.02 C76.93 106.2, 37.17 68.36, 9.46 44.22 M125.93 137.2 C101.55 114.22, 78.56 94.82, 11.49 34.46 M128.96 135.04 C94.59 106.4, 60.18 78.02, 12.16 35.73 M132.51 131.3 C100.84 98.01, 66.91 73.18, 20.01 28.25 M133.4 132.94 C101.1 101.24, 72.5 75.4, 18.64 33.15 M139.05 127.95 C97.7 86.27, 48.14 51.09, 22.4 27.43 M139.19 127.55 C96.04 90.52, 54.47 53.99, 22.44 24.98 M143.82 118.55 C104.09 85.43, 68.88 45.71, 30.62 18.88 M148.36 119.8 C113.37 92.1, 81.41 64.56, 31.06 19.3 M154.07 115.44 C108.02 75.02, 60.16 37.74, 32.18 17.32 M148.88 112.61 C121.03 88.83, 95.12 65.25, 33.82 13.75 M150.37 104.09 C124.22 83.6, 102.16 59.17, 45.07 12.92 M153.26 106.68 C125.91 86.52, 97 59.66, 43.18 10.65 M160.31 98.12 C130.9 75.44, 100.2 48.4, 46.35 8.21 M158.7 99.14 C130.83 78.03, 104.53 55.03, 49.66 5.62 M163.72 88.82 C120.65 62.38, 88.93 26.18, 58.32 -3.01 M158.69 92.71 C118.92 58.46, 81.45 26.22, 58.45 2.07 M165.23 82.09 C140.88 63.76, 120.12 48.92, 64.81 -3.45 M161.89 80.27 C136.83 57.15, 113.59 35.83, 64.06 -4.91 M163.48 72.02 C141.49 53.25, 118.51 34.52, 74.95 -4.09 M163.77 69.99 C136.43 50.48, 106.77 27.42, 76.45 -4.77 M165.4 59.76 C138.3 41.64, 111.13 10.81, 90.64 0.83 M163.23 59.96 C146.86 47.68, 130.55 32.76, 94.83 1.26 M142.31 32.79 C136.95 26.92, 134.15 25.06, 111.51 10.7 M145.1 36.96 C134.55 24.96, 128.18 17.15, 115.1 8.54" stroke="#228be6" stroke-width="1" fill="none"></path><path d="M145.09 35.66 C151.91 43.5, 158.92 54.24, 161.01 64.17 C163.09 74.09, 160.59 84.93, 157.6 95.19 C154.6 105.46, 149.67 117.6, 143.03 125.77 C136.38 133.95, 127.63 139.29, 117.73 144.23 C107.83 149.18, 94.42 154.52, 83.61 155.44 C72.8 156.37, 62.69 153.72, 52.87 149.79 C43.05 145.85, 32.53 139.37, 24.7 131.82 C16.87 124.27, 10.07 114.29, 5.91 104.48 C1.74 94.67, -0.44 83, -0.3 72.97 C-0.16 62.95, 1.58 53.35, 6.74 44.34 C11.9 35.32, 21.8 26, 30.64 18.88 C39.48 11.76, 49.29 4.45, 59.79 1.64 C70.29 -1.18, 82.74 -0.01, 93.63 1.98 C104.53 3.97, 115.72 7.42, 125.15 13.56 C134.58 19.69, 145.75 33.68, 150.21 38.78 C154.68 43.88, 153.29 43.28, 151.94 44.15 M25.06 20.08 C32.7 12.95, 47.58 9.7, 58.45 6.13 C69.32 2.57, 79.21 -1.9, 90.27 -1.31 C101.33 -0.73, 115.61 3.71, 124.81 9.67 C134.01 15.63, 139.89 25.97, 145.47 34.43 C151.04 42.89, 156.32 50.44, 158.25 60.44 C160.18 70.44, 159.66 83.89, 157.06 94.43 C154.47 104.97, 149.31 115.52, 142.66 123.7 C136.01 131.87, 126.9 138.38, 117.16 143.48 C107.42 148.58, 94.6 153.72, 84.2 154.3 C73.8 154.88, 65 150.13, 54.75 146.97 C44.5 143.82, 30.74 142.41, 22.68 135.35 C14.62 128.3, 10.08 114.98, 6.37 104.63 C2.66 94.29, 0.55 82.94, 0.42 73.29 C0.29 63.64, 0.79 55.82, 5.6 46.74 C10.42 37.65, 25.57 23.3, 29.31 18.8 C33.04 14.3, 27.15 19, 28.01 19.73" stroke="#000000" stroke-width="2" fill="none"></path></g><g stroke-linecap="round" transform="translate(777.0753016878066 305.21089374694566) rotate(0 60.23017064557979 56.260850219378085)"><path d="M5.85 30.26 C5.85 30.26, 5.85 30.26, 5.85 30.26 M5.85 30.26 C5.85 30.26, 5.85 30.26, 5.85 30.26 M5.45 45.46 C12.41 34.15, 16.9 24.92, 27.86 15.54 M1.98 47.6 C9.03 37.37, 15.89 29.13, 32.36 13.54 M3.48 55.83 C22.4 35.35, 38.39 17.19, 44.03 8.13 M6.04 54.8 C21.36 39.55, 37.97 22.52, 47.44 10.09 M8.1 65.29 C22.48 46.79, 44.07 21.61, 59.72 5.55 M4.72 67.88 C21.04 46.27, 37.12 30.97, 61.47 3.02 M6.66 73.88 C27.46 53.18, 50.59 31.39, 66.25 3 M9.34 77.44 C24.33 59.95, 35.51 43.92, 69.99 5.31 M7.96 83.7 C32.77 59.15, 51.6 42.45, 75.97 8.75 M10.11 84.73 C32.65 60.06, 55.86 33.69, 80.38 8.15 M13.32 91.48 C49.16 60.45, 76.49 24.66, 85.59 6.67 M17.49 89.72 C31.95 72.97, 47.4 57.01, 89.49 7.15 M26.37 99.55 C46.4 69.23, 67.37 43.06, 99.25 9.29 M22.44 97.83 C39.66 80.77, 54.38 62.01, 97.16 10.95 M25.43 98.84 C49.7 71.13, 74.32 42, 100.05 16.42 M27.12 102.46 C47.85 77.19, 70.08 55.05, 100.1 15.54 M38.52 109.38 C48.08 88.27, 71.41 66.83, 111.38 23.51 M34.31 105.13 C56.31 80.83, 77.99 56.67, 107.53 20.18 M38.61 106.3 C64.8 80.47, 88.15 53.67, 109.24 33.12 M40.99 109.16 C68.64 78.67, 91.27 53.03, 111.99 30.55 M53.9 112.59 C76.46 84.63, 104.23 53.29, 117.25 34.89 M51.04 111.99 C67.69 94.42, 85.42 73.36, 114.66 38.31 M57.54 113.05 C78.88 93.13, 87.9 81.05, 121.18 47.79 M59.33 114.78 C75.34 100.29, 87.98 83.86, 122.24 42.99 M75.61 112.15 C82.06 98.74, 88.62 93.5, 118.07 59.98 M74.02 111.89 C87.2 96.33, 100.99 77.76, 118.51 59.46 M85.3 110.19 C94.42 101.25, 101.88 89.59, 118.41 75.87 M81.2 114.69 C91.84 103.18, 98.91 93.74, 116.83 72.62 M24.42 99.95 C24.42 99.95, 24.42 99.95, 24.42 99.95 M24.42 99.95 C24.42 99.95, 24.42 99.95, 24.42 99.95 M46.3 110.83 C38.4 108.85, 31.81 95.3, 5.92 76.62 M51.47 112.89 C35.25 98.04, 21.19 87.39, 10.67 75.6 M60.74 112.61 C43.5 99.95, 27.38 83.18, 10.61 63.59 M62.71 112.02 C43.3 97.48, 26.63 81.26, 7.59 66.07 M70.44 108.49 C51.32 93.98, 26.54 72.65, 7.13 54.11 M72.89 108.33 C47.51 87.4, 19.48 65.92, 3.51 49.45 M80.03 106.6 C63.56 86.13, 39.31 73.65, 7.89 42.45 M85.04 109.19 C52.61 83.83, 21.34 58.81, 6.08 39.8 M86.91 105.46 C70.09 86.7, 49.86 63.39, 5.99 34.98 M87.97 103.26 C64.8 82.2, 36.76 61.17, 6.07 30.84 M97.28 97.45 C76.33 84.72, 66.18 66.37, 7.57 20.88 M94.72 99.61 C64.73 69.59, 32.41 41.29, 12.08 26.23 M102.36 90.47 C86 78.48, 63.53 60.75, 13.32 22.37 M101.1 92.98 C72.7 68.12, 44.32 40.8, 18.39 17.48 M108.62 86.91 C79.62 67, 57.74 45.52, 17.89 11.78 M110.34 86.39 C90.27 74.17, 72.48 57.62, 22.79 12.62 M108.56 82.53 C89.24 59.35, 62.73 35.28, 29.03 5.64 M114.23 81.61 C89.05 58.55, 62.12 36.63, 28.03 5.9 M116.22 73.93 C94.39 53.61, 75.69 38.52, 37.98 0.35 M114.98 74.35 C90.07 50.4, 64.08 27.41, 34.69 5.1 M120.9 65.62 C96.42 41.5, 67.28 22.49, 48.24 -2.26 M121.37 64.83 C94.68 43.95, 64.36 16.84, 44.2 0.73 M118.17 57.6 C98.88 30.19, 73.63 11.44, 55.85 -2.65 M122.07 57.05 C101.71 39.37, 80.27 22.3, 53.61 -2.08 M118.63 49.43 C108.57 35.48, 101.5 28.26, 68.14 3.24 M120.84 46.53 C109.27 34.93, 99.67 27.35, 68.63 2.83 M124.18 38.01 C112.19 28.48, 105 20.2, 81.94 8.44 M123.09 37.6 C110.36 26.71, 96.76 12.8, 84.24 6.78" stroke="#228be6" stroke-width="1" fill="none"></path><path d="M85.45 5.04 C93.66 6.98, 101.09 12.93, 106.53 19.31 C111.98 25.68, 116.42 34.8, 118.1 43.31 C119.77 51.81, 119.09 61.85, 116.59 70.33 C114.1 78.81, 109.06 87.41, 103.15 94.18 C97.23 100.95, 90.14 107.88, 81.12 110.95 C72.09 114.02, 58.39 114.4, 48.99 112.61 C39.59 110.82, 31.91 105.6, 24.71 100.21 C17.51 94.82, 9.65 88.19, 5.8 80.28 C1.95 72.37, 1.58 61.1, 1.61 52.74 C1.63 44.39, 1.81 37.49, 5.94 30.15 C10.08 22.81, 18.33 13.85, 26.42 8.69 C34.51 3.54, 44.17 -0.07, 54.47 -0.79 C64.76 -1.52, 82.09 2.5, 88.17 4.34 C94.26 6.18, 91.64 9.01, 90.95 10.23 M80.31 2.28 C88.95 3.17, 94.49 7.86, 100.79 14.33 C107.09 20.8, 115.24 32.52, 118.1 41.08 C120.96 49.64, 119.92 57.1, 117.95 65.69 C115.99 74.28, 111.63 85.32, 106.32 92.65 C101 99.98, 94.29 105.88, 86.06 109.66 C77.82 113.44, 66.78 116.18, 56.9 115.32 C47.03 114.46, 34.46 109.89, 26.81 104.5 C19.17 99.11, 15.3 90.81, 11.05 82.97 C6.8 75.13, 1.94 66.11, 1.29 57.47 C0.64 48.84, 3.98 38.96, 7.13 31.16 C10.28 23.35, 12.89 15.65, 20.18 10.65 C27.48 5.64, 41.58 2.62, 50.89 1.11 C60.2 -0.4, 71.93 0.76, 76.05 1.58 C80.18 2.41, 75.51 4.93, 75.63 6.04" stroke="#000000" stroke-width="2" fill="none"></path></g><g transform="translate(296.2212681441886 377.4259722858858) rotate(0 73.5 17.5)"><text x="0" y="25" font-family="Virgil, Segoe UI Emoji" font-size="28px" fill="#000000" text-anchor="start" style="white-space: pre;" direction="ltr">You can -&gt;</text></g><g transform="translate(1039.5068042312555 224.73561218939824) rotate(0 73.5 17.5)"><text x="0" y="25" font-family="Virgil, Segoe UI Emoji" font-size="28px" fill="#000000" text-anchor="start" style="white-space: pre;" direction="ltr">You can -&gt;</text></g><g stroke-linecap="round" transform="translate(303.6045657498248 432.1044608833025) rotate(0 44.78317944688823 43.09324814700574)"><path d="M0 0 C0 0, 0 0, 0 0 M0 0 C0 0, 0 0, 0 0 M3.31 13.18 C4.32 9.94, 10.84 3.49, 9.83 -1.14 M1.16 11.67 C5.05 6.04, 8.36 4.09, 10.84 1.12 M0.05 28.08 C3.8 16.95, 15.38 6.74, 21.36 3.76 M-0.63 25.82 C6.99 19.46, 10.76 9.56, 21.81 -0.59 M0.84 36.87 C9.8 29.25, 14.6 16.02, 29.54 -2.56 M-2.12 37.97 C6.67 24.52, 17.33 16.88, 32.84 1.82 M-3.08 49.16 C13.61 36.52, 21.5 28.83, 40.27 -0.15 M1.83 47.93 C9.81 35.01, 21.21 21.28, 43.11 -1.74 M1.27 63.34 C23.43 36.55, 39.24 17.65, 49.9 0.32 M-0.62 59.84 C9.89 47.12, 23.24 33.77, 52.17 -0.74 M3.81 76.2 C17.83 49.92, 39.6 26.01, 60.81 1.51 M-1.19 71.02 C15.69 58.07, 29.52 41.24, 62.13 0.09 M2.49 87.84 C18.2 59.12, 42.38 38.85, 73.16 -0.28 M1.95 84.52 C25.85 55.26, 53.83 25.1, 75.75 0.65 M8.26 91.95 C22.55 74.52, 36.87 50.33, 84.62 -2.93 M7.53 90.99 C30.23 59.13, 59.79 30.7, 86.62 1.39 M18.38 92.09 C40.27 64.71, 60.01 41.3, 95.52 0.81 M14.84 92.64 C38.6 65.46, 62.75 37.69, 94.62 2.12 M24.1 89.97 C43.67 74.12, 61.08 48.24, 92.59 11.57 M25.87 91.1 C52.31 59.32, 78.28 30.85, 92.05 13.95 M36.97 93.62 C59.87 68.48, 79.46 48.14, 95.79 26.23 M37.89 91.22 C52.69 69.73, 71.41 52.36, 92.85 25.8 M51.29 87.64 C54.37 77.91, 69.52 67.57, 91.7 39.32 M48.34 91 C58.63 78.06, 68.77 69.67, 92.37 41.38 M59.89 93.53 C66.68 81.27, 81.12 65.49, 93.21 50.73 M56.97 89.44 C74.01 76.99, 87.05 59.21, 93.41 50.55 M69.89 93.86 C77.19 84.58, 80.67 78.21, 93.9 66.95 M67.97 90.43 C79.22 78.84, 85.97 68.77, 94.98 62.18 M78.41 92.55 C88.84 83.23, 92.32 81.29, 91.1 74.08 M80.04 90.61 C83.49 84.12, 88.37 77.85, 93.75 76.77 M0.34 86.49 C0.34 86.49, 0.34 86.49, 0.34 86.49 M0.34 86.49 C0.34 86.49, 0.34 86.49, 0.34 86.49 M11.45 84.96 C9 81.23, 0.95 75.15, -2.65 73.56 M11.2 85.96 C7.6 83.15, 4.26 80.34, 1.38 74.68 M23.99 83.14 C19.85 81.45, 6.88 67.49, 1.21 62.48 M25.38 85.2 C17.07 81.41, 12.47 75.82, 0.61 64.75 M39.05 82.25 C26.08 70.32, 9.45 59.63, 0.43 52.25 M35.85 87.46 C27.07 77.41, 15.71 68.47, -1.23 53.97 M47.88 88.39 C29.95 69.12, 10.63 53.8, -1.29 46.16 M49.66 87.22 C37.22 77.94, 26.87 68.1, 1.07 42.86 M63.27 83.5 C47.84 77.7, 33.44 59.09, 2.8 37.16 M62.24 87.74 C40.81 68.55, 18.11 49.37, -1.14 35.13 M76 82.66 C50.61 72.86, 30.47 52.2, -2.56 19.56 M72.15 86.19 C54.59 70.64, 39.27 53.02, 0.06 21.25 M83.14 86.27 C64.15 67.04, 43.56 49.73, 1.18 9.25 M83.77 85.47 C56.82 59.5, 25.61 37.48, -0.74 10.3 M96.25 85.73 C61.62 55.62, 29.87 28.77, 2.05 -0.01 M93.89 83.53 C70.5 62.48, 45.41 43.16, -0.15 1.91 M91.94 73.6 C57.33 41.23, 25.83 12.27, 1.93 -4.42 M92.6 71.14 C60.42 42.82, 28.06 11.73, 4.67 -5.99 M92.64 63.76 C67.84 38.86, 42.5 16.88, 18.16 -7.15 M94.48 59.63 C79 45.67, 60.25 30.77, 16.11 -6.51 M92.25 47.83 C72.82 31.7, 45.87 8.7, 26.33 -5.95 M94.61 49.05 C71.98 32.64, 46.37 11.31, 29.16 -3.82 M95.47 38.08 C82.23 31.02, 73.49 19.43, 42.85 -4.5 M94.25 38.58 C78.25 28.52, 66.18 14.48, 40.43 -4.86 M93.51 31.6 C78.92 20.87, 74.28 8.17, 50.11 -1.35 M90.97 30.4 C79.46 17.06, 61.3 5.53, 51.66 -4.64 M95.84 14.58 C86.03 12.7, 80.91 6.72, 64.82 -5.72 M92.75 17.6 C83.44 11.08, 77.6 4.36, 64.43 -6.44 M89.97 6.6 C84.85 3.69, 82.14 -1.67, 78.7 -3.91 M92.14 8.01 C88.84 4.78, 83.13 -3.04, 79.25 -4.57" stroke="#7950f2" stroke-width="1" fill="none"></path><path d="M-3.69 -0.19 C26.62 1.85, 58.02 1.37, 87.72 1.83 M1.95 1.57 C29.02 -0.13, 59.77 1.89, 90.89 -1.73 M87.19 3.07 C89.95 22.5, 87.29 40.02, 88.7 89.04 M91.55 -0.22 C87.59 20.71, 88.66 43.56, 91.29 85.07 M93 85.92 C63.37 84.7, 44.26 87.57, -3 85.21 M88.24 84.9 C59.22 86.99, 27.47 87.69, -1.36 87.63 M-3.52 88.29 C-0.32 49.07, 0.75 21.02, 2.73 -3.19 M0.92 86.02 C0.02 60.34, 0.64 34.92, 0.93 1.28" stroke="#000000" stroke-width="2" fill="none"></path></g><g stroke-linecap="round" transform="translate(1030.3852826966684 275.8773538281956) rotate(0 88.40305860319279 73.15559729526973)"><path d="M0 0 C0 0, 0 0, 0 0 M0 0 C0 0, 0 0, 0 0 M-0.16 13.08 C5.81 8.15, 5.88 3.01, 12.18 -0.63 M-0.91 12.53 C2.31 8.84, 4.44 7, 12.16 -1.19 M4.06 27.9 C7.5 17.04, 15.12 3.88, 22.42 1.82 M1.27 25.72 C9.41 16.74, 15.58 6.33, 20.1 0.37 M3.51 34.13 C9.81 23.97, 16.19 20.67, 29.11 -3.78 M-0.66 35.29 C10.57 25.8, 17.08 13.72, 32.1 0.98 M2.41 48.33 C11.56 33.36, 28.51 20.83, 41.31 0.92 M0.77 48.94 C15.82 33.07, 29.53 17.13, 42.19 0.06 M2.38 57.2 C17.25 41, 26.99 29.3, 56.77 0.74 M-0.77 61.87 C22.31 37.98, 41.41 16.82, 55.03 1.54 M-3.29 74.99 C16.69 52.14, 36.8 32.81, 61.98 -0.89 M-0.86 73.82 C13.02 55.97, 31.74 39.82, 64.49 1.51 M1.45 84.57 C24.18 53.19, 50.18 30.04, 71.95 -1.66 M1.07 85.66 C21.86 66.19, 38.22 42.65, 75.72 0.07 M-1.47 98.44 C21.99 70.37, 47.34 45.15, 81.99 -4.2 M-0.77 96.01 C16.8 78.07, 33.26 53.95, 83.3 1.2 M2.12 111.91 C30.53 76.85, 60.09 43.24, 99.41 -3.76 M-1.76 110.14 C20.14 83.91, 40.41 59.69, 97.36 0.65 M-1.56 119.9 C26.53 96, 48.85 69.77, 103.3 -0.01 M-0.72 120.33 C25.64 93.37, 52.12 61.09, 105.72 -2.21 M-3.84 134.2 C39.96 87.45, 77.27 43.63, 115.63 0.01 M0.9 134.73 C39.07 94.82, 73.53 54.4, 115.32 0.28 M1.44 148.44 C34.39 102.19, 68.68 64.05, 123.59 -0.92 M0.4 146.03 C40.84 100.38, 83.49 52.89, 125.01 0.88 M12.23 146.28 C44.48 103.78, 82.53 55.85, 139.43 2.61 M10.56 147.2 C43.74 110.48, 76.16 77.12, 135.71 1.9 M17.86 150.63 C49.32 114.39, 70.88 81.98, 146.85 3.84 M21.51 148.4 C54.85 111.29, 90.33 71.06, 147.2 0.01 M32.89 148.67 C78.35 84, 127.01 26.95, 156.05 -3.13 M33.04 145.59 C59.77 112.64, 92.86 74.1, 159.53 -1.1 M42.43 144.68 C61.7 120.4, 93.09 85.22, 171.52 -3.09 M42.29 144.99 C76.95 103.49, 112.55 61.05, 171.18 1.15 M52.52 145.32 C83.05 113.4, 105.38 81.02, 182.45 -1.99 M52.45 147.95 C91.11 105.55, 128.95 64.35, 179.89 1.6 M65.24 148.56 C103.62 96.71, 146.6 54.61, 181.24 15.39 M62.29 147.6 C85.86 119.83, 109.16 92.64, 179.5 13.3 M70.42 148.01 C95.08 118.73, 119.36 88.53, 178.88 22.48 M72.24 144.69 C98.68 118.84, 119.36 94.28, 177.7 24.15 M85.43 145.1 C120.49 109.96, 155.02 70.12, 177.79 42.15 M86.52 147.5 C109.09 119.13, 134.73 88.79, 179.28 39.79 M98.92 145.38 C120.66 112.72, 145.48 86.87, 175.38 49.36 M95.31 147.67 C123.79 109.68, 153.93 73.58, 180.05 49.85 M102.53 146.74 C131.65 114.45, 158.95 85.62, 175.88 59.9 M104.81 148.12 C126.3 122.25, 148.5 96.89, 177.01 64.35 M114.71 143.7 C130.66 131.09, 144.73 109.87, 176.67 75.71 M115.4 146.91 C134.56 127.53, 148.46 110.75, 177.14 74.58 M124.41 147.58 C138.29 129, 152.78 112.36, 175.43 89.78 M127.78 145.11 C145.33 121.88, 164.86 101.95, 178.82 85.7 M138.87 142.85 C151.3 129.11, 169.53 115.61, 177.19 99.25 M137.05 146.66 C149.41 136.72, 156.38 125.63, 177.34 101.4 M151.34 147.31 C154.81 143.66, 158.47 132.99, 180.73 114.56 M146.88 146.28 C156.78 135.41, 168.55 123.75, 177.64 112.75 M156.85 144.37 C167.24 141.78, 172.61 134.92, 182.39 120.3 M159.6 145.31 C161.22 141.9, 165.97 136.18, 180.48 122.58 M168.49 144.15 C172.4 143.99, 174.81 136.24, 178.57 133.36 M170.17 147.2 C172.69 144.05, 174.39 139.94, 179.12 134.74 M0.01 146.32 C0.01 146.32, 0.01 146.32, 0.01 146.32 M0.01 146.32 C0.01 146.32, 0.01 146.32, 0.01 146.32 M12.3 146.41 C7.27 145.01, 2.09 142.5, 1.89 136.92 M12.33 145.57 C7.26 143.87, 4.62 140.6, -0.87 135.76 M24.46 144.63 C12.71 135.7, 3.17 130.04, 3.94 121.94 M25.41 147.9 C17.61 140.22, 10.76 135.07, 0.37 123.52 M39.36 149.83 C26 136.2, 16.1 129.87, -3.33 110.7 M36.27 148.38 C29.19 139.91, 24.04 133.69, 0.85 114.45 M47.95 147.03 C34.99 135.5, 30 125.95, 1.46 103.68 M50.5 148.1 C37.07 133.9, 24.4 122.26, 1.21 105.09 M59.45 142.5 C38.48 128, 15.92 108.18, -3.06 94.65 M61.43 148.02 C37.57 126.61, 14.68 106.26, -1.02 92.6 M74.06 149.46 C45.99 123.04, 22.15 101.9, -0.69 83.25 M73.29 146.08 C45.61 127.6, 21.4 105.21, -1.5 82.67 M83.53 144.97 C58.8 124.7, 32.74 95.71, -2 71.21 M84.14 145.74 C59.4 124, 30.46 99.95, 1 73.34 M95.63 146.86 C63.16 109.68, 20.82 76.81, 3.5 58.62 M96.7 148.5 C64.81 122.74, 36.02 96.64, -1.2 62.94 M106.88 143.34 C79.97 115.74, 49.7 94.33, -0.94 48.15 M109.48 147.16 C74.01 118.81, 42.27 89.32, 1.37 49.94 M122.85 149.2 C80.14 107.02, 31.88 68.29, -3.57 41.35 M123.43 145.6 C80.84 109.71, 39.94 73.85, 1.5 40.81 M130.87 143.4 C99.27 109.81, 63.69 79.02, -4.32 26.86 M133.06 148.08 C92.81 110.84, 53.11 75.21, 1.39 29.89 M148.55 146.02 C114.35 115.83, 81.77 93.69, 1.61 17.31 M145.29 147.75 C108.44 116.69, 74.93 85.85, -0.45 19.98 M160.11 143.54 C116.02 110.41, 65.48 66.82, -3 10.75 M158.41 147.08 C125.19 116.81, 86.94 81.89, 1.72 7.66 M170.07 144.76 C127.6 105.87, 87.24 70.08, 1.37 0.42 M169.17 147.36 C131.21 113.52, 90.58 79.2, 1.18 -0.97 M177.67 140.67 C129.01 97.36, 79.89 59.25, 9.87 -0.97 M178.87 141.51 C137.63 108.72, 94.42 73.09, 13.16 0.24 M178.55 129.96 C135.06 94.68, 95 58.95, 26.6 0.07 M177.69 131.97 C122.45 80.78, 64.04 31.48, 23.84 -2.09 M179.32 121.75 C128.99 81.64, 78.5 32.59, 34.81 -2.64 M178.96 123.03 C137.53 84.95, 93.95 44.43, 36.9 -1.16 M180.44 111.2 C140.61 73.82, 102.44 40.59, 46.93 -1.58 M179.74 113.12 C148.07 85.18, 113.84 58.69, 50.98 0.25 M181.13 101.44 C145.37 74.94, 119.44 45.09, 65.11 2.56 M178.01 102.69 C135.87 61.46, 91.47 23.78, 60.8 -0.33 M176.18 90.37 C156.92 74.82, 134.05 50.8, 76.62 1.58 M180.6 91.49 C142.61 61.4, 107.14 29.39, 73.02 -3.18 M180.41 83.23 C159.64 63.4, 137.41 45.86, 86.49 0.88 M177.91 78.99 C158.57 63.84, 138.89 42.28, 84.99 -1.96 M180.4 72.86 C154.61 50.03, 138.1 33.81, 102.01 0.37 M177.99 68.35 C159.29 47.23, 133.84 27.85, 99.59 0.85 M182.29 59.96 C161.6 38.74, 139.06 25.96, 113.51 -3.9 M180.69 58.19 C165.06 43.6, 148.06 27.46, 112.38 -0.8 M179.44 49.32 C162.77 37.48, 153.87 20.22, 122.6 -3.57 M179.8 46.55 C158.48 28.51, 137.75 11.4, 122.23 -0.76 M176.28 38.08 C166.4 26.93, 149.02 8.64, 138.89 -0.32 M181.16 38.73 C170.46 28.76, 159.89 20.41, 134.44 0.62 M179.99 28 C167.27 14.25, 158.8 6.14, 148.53 -0.99 M180.77 27.14 C169.68 21.73, 163.45 12.62, 147.6 -2.99 M176.28 13.68 C174.8 11.84, 171.87 3.67, 162.69 -4.67 M178.95 15.23 C172.75 9.26, 164.54 2.22, 160.48 0.61 M178.28 4.14 C177.82 4.74, 173.18 1.83, 173.09 -1.06 M178.93 5.4 C178.05 3.58, 175.63 1.82, 171.5 -0.84" stroke="#7950f2" stroke-width="1" fill="none"></path><path d="M0.04 -3.58 C38.1 1.48, 79.93 -2.5, 173.57 -2.59 M1.6 -1.45 C71.2 -1.31, 139.93 -1.56, 177.74 -0.24 M174.72 -2.42 C174.28 33.11, 174.7 66.61, 173.87 147.76 M175 -0.19 C172.34 52.8, 172.51 104.45, 178.79 147.49 M175.3 147.65 C122.87 139.67, 78.51 141.81, 2.79 149.71 M176.27 146.88 C122.56 151.5, 66.74 150.31, -1.27 145.54 M-3.33 147.06 C1.25 104.43, -1.03 56.23, 1.76 -2.26 M0.09 147.43 C-3.39 111.79, -1.15 80.83, 1.43 -1.58" stroke="#000000" stroke-width="2" fill="none"></path></g><g stroke-linecap="round" transform="translate(1030.9539574736837 448.5677139246832) rotate(0 88.40305860319268 30.714633791838196)"><path d="M0 0 C0 0, 0 0, 0 0 M0 0 C0 0, 0 0, 0 0 M-0.7 9.12 C2.35 12.13, 1.88 4.39, 7.85 2.33 M1.02 12.85 C3.21 8.76, 6.11 5.58, 12.13 -1.42 M-3.04 24.61 C4.7 15.22, 7.58 10.13, 24.65 1.85 M-0.52 23.07 C5.88 19.29, 9.5 14.84, 19.76 0.1 M-1.73 33.7 C8.69 29.69, 18.21 15.1, 30.73 -3.83 M-2.26 37 C11.11 24.12, 21.01 12.28, 31.57 -0.29 M1.36 50.46 C15.2 34.23, 25.65 20.64, 40.61 -0.33 M0.45 50.14 C11.18 33.91, 22.66 21.37, 40.86 -0.77 M0.25 61.01 C16.06 44.05, 36.8 23.33, 49.35 0.91 M0.67 61.12 C13.85 43.31, 29.78 22.9, 54.1 0.98 M5.33 68.68 C20.82 50.07, 38.86 37.18, 60.13 2.98 M4.53 68.18 C19.09 51.56, 28.65 36.77, 63.12 1.58 M17.91 69.61 C29.64 53.01, 48.42 32.56, 72.48 -0.77 M17.36 67.18 C37.82 37.61, 59.83 11.75, 73.04 -1.92 M30.35 64.02 C38.44 52.18, 55.32 31.79, 86.5 -2.95 M27.45 65.17 C36 54.38, 50.5 38.16, 86.09 -1.92 M38.21 62.85 C52.03 44.81, 67.3 24.29, 99.18 1.58 M37.81 65.47 C51.87 50.8, 61.9 35.92, 97.52 -2.15 M47.26 69.56 C65.32 49.07, 85.43 30.58, 108.6 -0.5 M48.83 67.83 C68.27 41.64, 90 20.31, 107.48 0.49 M56.31 68.89 C70.91 52.38, 81.96 38.89, 117.52 -0.47 M56.73 67.54 C70.24 51.41, 83.59 34.92, 116.21 -1.26 M65.57 63.11 C84.52 48.78, 94.77 35.44, 124.29 -2.88 M69.55 66.06 C91.03 44.27, 112.07 20.01, 126.56 2.14 M83.51 68.76 C93.04 50.1, 110.15 28.74, 139.13 2.78 M81.61 66.19 C97.49 43.84, 115.13 24.9, 135.92 -0.31 M90.45 69.13 C108.84 40.44, 129.17 14.19, 151.03 -1.22 M88.73 66.85 C110.87 42.29, 131.73 19.58, 146.73 -1.1 M98.82 70.08 C115.15 48.33, 133.03 28.09, 155.31 3.66 M100.14 65.31 C115.05 51.61, 128.43 33.69, 157.69 0.75 M109.38 67.7 C129.9 48.7, 141.12 34.22, 165.92 0 M110.3 67.24 C125.13 47.91, 140.84 29.87, 167.63 1.73 M123.5 64.12 C141.94 38.4, 163.33 18.87, 178.33 -0.36 M122.85 64.86 C141.64 43.56, 163.21 22.47, 178.09 1.54 M131.41 67.25 C147.65 57.12, 153.39 44.35, 176.56 17.5 M134.4 67.07 C141.99 58.62, 150.04 46.12, 179.93 15.22 M140.44 66.52 C152.19 54.25, 167.16 40.8, 177.03 28.16 M142.47 65.58 C154.61 56.7, 163.98 45.59, 180.82 24.11 M155.26 64.63 C155.56 61.64, 161.9 53.82, 181.93 36.53 M153.34 65.02 C162.35 57.71, 170.42 44.88, 178.25 36.93 M166.16 69.3 C169.72 64.5, 171.05 56.81, 179.26 48.04 M165.92 65.05 C167.86 64.22, 172.67 57.63, 179.17 50.29 M-0.23 61.23 C-0.23 61.23, -0.23 61.23, -0.23 61.23 M-0.23 61.23 C-0.23 61.23, -0.23 61.23, -0.23 61.23 M13.16 60.45 C5.95 59.77, 3.84 55.88, -2.05 50.75 M12.73 61.15 C6.74 56.47, 1.7 53.2, 1.44 49.28 M27.24 65.32 C17.62 55.31, 10.1 50.39, 0.56 36.9 M25.84 63.25 C17.33 54.95, 10.59 50.23, -1.91 38.11 M35.42 65.1 C28.45 55.21, 25.74 49.36, 1.55 29.38 M36.16 61.78 C26.81 53.68, 21.41 46.38, 0.46 29.28 M51.85 64.67 C37.65 47.78, 25.77 36.22, 2.31 21.29 M47.93 59.45 C30.71 46.17, 12.6 30.32, -1.81 19.45 M61.66 64.64 C36.33 42.94, 14 22.64, -1.35 7.61 M61.26 62.86 C38.87 42.13, 18.42 24.15, 0.11 9.09 M74.1 61.55 C44.79 45.33, 21.72 22.6, -1.54 -0.98 M72.77 61.21 C50.99 42.99, 28.08 19.9, 0.19 -1.58 M83.75 61.01 C65.07 44.56, 37.09 22.44, 15.58 1.49 M84.46 61.76 C59.29 35.27, 29.16 11.05, 15 -2.7 M95.31 65.36 C71.39 44.86, 52.06 25.93, 23.29 1.83 M96.11 59.93 C77.88 41.67, 57.88 26.74, 24.84 -2.75 M108.83 62.8 C84.58 46, 65.94 26.01, 41.3 -2.39 M110.11 62.79 C84.9 38.17, 56.9 15.44, 36.34 -0.31 M124.7 59.82 C97.94 39.41, 71.76 16.04, 53.66 0.47 M120.14 59.83 C103.13 41.89, 84.11 25.43, 48.02 -2.38 M132.67 65.57 C109.93 45.01, 88.97 24.55, 65.55 -0.23 M135.76 61.73 C118.74 46.7, 102.53 35.7, 62.66 -2.3 M145.1 65.03 C126.67 46.1, 112.04 29.96, 72.48 -0.25 M147.26 59.89 C127.33 45.53, 103.85 25.31, 72.2 -0.27 M157.67 62.66 C146.11 50.27, 125.8 28.85, 89.3 -4.06 M158.12 60.5 C139.92 43.84, 123.06 28.78, 86.31 -0.57 M166.7 63.53 C153.92 48.13, 133.44 32.66, 99.25 -0.48 M169.78 59.99 C148.84 41.18, 127.67 25.41, 97.06 -0.79 M179.06 55.11 C164.6 45.9, 143.4 31.92, 111.14 2.48 M179.33 57.22 C159.77 41.74, 142.17 25.93, 111.78 -0.27 M176.49 47.03 C159.01 28.28, 134.21 10.03, 120.13 -2.67 M179.36 47.62 C159.14 32.08, 138.88 11.9, 121.44 -2.11 M177.89 38.56 C166.99 27.73, 153.73 10.94, 133 -1.83 M179.9 37.03 C166.38 24.01, 153.5 12.78, 133.52 -1.64 M179.47 29.37 C174.52 16.87, 161.06 11.71, 149.13 1.12 M180.23 26.84 C169.21 19.95, 163.29 11.16, 148.63 0.36 M176.05 19.15 C174.15 6.43, 166.34 1.47, 157.48 0.75 M177.74 15.99 C174.56 14.07, 169.77 7.84, 161.16 0.46 M180.37 6.4 C176.47 4.56, 175.1 2.18, 170.9 -2.98 M179.64 6.26 C178.09 4.02, 175.9 2.56, 172.01 -0.55" stroke="#7950f2" stroke-width="1" fill="none"></path><path d="M-0.8 -3.17 C56.61 2.03, 103.21 -0.06, 177.23 2.17 M1.27 -0.29 C53.66 -2.43, 110.07 -1.14, 176.2 0.53 M178.58 0.03 C181.2 22.28, 179.63 44.62, 176.14 61.82 M177.99 -1.88 C177.8 13.43, 176.01 30.62, 178.62 61.88 M175.25 63.24 C113.44 58.7, 44.41 62.7, 3.76 64.86 M175.09 62.42 C129.5 61.36, 83.76 61.49, -0.9 61.09 M-2 63.07 C-4.39 45.95, 2.25 34.2, 1.42 3.44 M0.58 61.2 C-0.19 40.15, 0.87 22.53, -1.23 -0.71" stroke="#000000" stroke-width="2" fill="none"></path></g><g stroke-linecap="round" transform="translate(416.69037504266186 431.9648730840071) rotate(0 44.783179446888255 43.09324814700574)"><path d="M0 0 C0 0, 0 0, 0 0 M0 0 C0 0, 0 0, 0 0 M-1.12 9.86 C3.81 6.52, 7.45 4.33, 9.38 0.97 M0.22 12.19 C2.39 8.04, 5.92 2.76, 11.42 -0.54 M2.41 20.42 C3.79 17.23, 11.37 9.86, 22.99 3.6 M-0.36 23.73 C7.14 15.73, 14.89 4.42, 20.57 -1.4 M2.05 35.27 C2.54 29.92, 11.66 21.13, 33.13 2.11 M-0.4 38.2 C11.65 23.37, 25 7.96, 32.16 1.57 M2.8 45.85 C14.84 37.47, 20.17 21.51, 42.88 2.47 M-1.25 47.68 C13.43 31.19, 28.32 18.05, 40.93 1.73 M0.83 64.2 C19.98 46.95, 31.8 27.1, 54.76 1.92 M0.75 61.13 C17.64 40.27, 33.88 20.44, 51.28 -1.62 M-1.89 71.11 C28.86 43.95, 48.19 19.79, 66.63 -3.02 M0.8 71.56 C17.04 50.16, 36.82 32.11, 65.42 -1.25 M-2.06 88.68 C21.28 57.45, 48.79 30.98, 75.97 -0.82 M0.87 86.92 C28.34 52.71, 54.22 23.66, 75.14 0.1 M6.47 93.95 C31.96 59.68, 52.99 33.97, 84.09 2.83 M6.8 90.16 C24.01 71.88, 40.34 52.69, 85.79 -0.11 M18.46 94.81 C38.08 68.54, 61.93 39.75, 89.79 3.79 M17.7 89.45 C45.32 57.71, 75.18 25.54, 93.46 0.87 M29.52 89.68 C41.74 70.29, 55.09 53.53, 93.59 15.2 M25.82 92.29 C51.87 63.53, 77.8 32.34, 92.88 13.28 M34.85 87.23 C56.33 71.31, 70.14 54.97, 93.08 25.89 M38.94 91.58 C54.18 68.93, 75.87 46.92, 92.37 27.52 M44.27 88.16 C63.18 78.54, 74.98 61.99, 92.8 37.25 M46.93 89.76 C56.69 82.07, 66.25 68.18, 91.39 41.49 M62.43 92.94 C71.14 75.27, 84.33 67.42, 96.41 50.46 M57.72 88.95 C65.34 79.62, 76.63 70.24, 92.3 50.15 M69.12 93.55 C78.9 80.31, 84.82 74.49, 89.6 63.24 M69.1 89.07 C74.66 83.05, 78.24 78.69, 94.85 64.62 M79.42 89.25 C84.23 86.12, 90.4 82.74, 91.65 78.29 M80.62 89.97 C82.56 86.76, 85.12 84.34, 91.48 75.09 M0.34 86.49 C0.34 86.49, 0.34 86.49, 0.34 86.49 M0.34 86.49 C0.34 86.49, 0.34 86.49, 0.34 86.49 M12.64 85.67 C9.38 80.8, 2.07 76.41, 3.09 77.43 M13.24 85.67 C10.65 85.73, 7.56 82.87, 1.56 76.61 M23.27 82.97 C12.79 82.03, 6.16 69.75, 3.67 67.88 M23.91 86.86 C18.26 80.71, 13.6 76.95, -0.49 64.03 M40.44 84.32 C26.04 74.25, 13.28 66.21, -1.45 52.35 M35.86 86.14 C26.28 75.08, 15.68 68.21, 0.74 52.98 M47.84 89.44 C33.44 70.54, 23.92 60.31, -0.55 47.32 M47.79 86.69 C30.9 69.12, 9.94 54.86, -0.73 44.96 M58.7 88.63 C37.61 68.26, 17.8 50.24, -3.48 32.41 M59.97 85.21 C39.21 67.82, 20.67 47.15, 0.73 33.07 M77.08 83.77 C52.77 67.19, 34.09 51.43, 3.24 22.51 M75.26 87.19 C46.19 61.88, 16.37 38.11, -1.53 24.35 M82.68 83.96 C63.06 66.27, 45.47 48.89, -3.29 11.53 M83.59 85.06 C63.28 68.92, 45.2 50.58, 1.5 13.89 M91.48 82.73 C70.19 67.6, 43.71 41.13, 1.88 4.16 M94.2 81.68 C69.33 61.66, 43.82 39.31, -1.65 2.94 M94.86 71.71 C69.68 54.48, 48.69 35.96, 4.31 -4.47 M94.38 70.4 C60.09 45.91, 31 16.3, 5.45 -7 M88.83 64.24 C59.94 37.66, 33.95 15.72, 20.42 -2.23 M94.36 61.07 C76.48 47.06, 60.52 34.78, 16.98 -5.32 M92.25 47.35 C74.77 32.6, 62.88 20.04, 28.66 -8.2 M93.09 50.39 C76.56 36.1, 59.33 21.74, 27.7 -6.04 M94.53 36.11 C79.35 28.08, 57.94 14.94, 40.63 -8.43 M93.66 38.62 C73.72 23.98, 53.63 2.9, 39.67 -5.28 M91.98 25.38 C84.4 23.45, 76.75 15.31, 54.79 -5.43 M91.15 27.69 C82.84 19.32, 75.58 13.3, 51.6 -4.35 M91.97 21.5 C81.18 6.8, 79.09 0.44, 65.18 -6.48 M92.56 19.33 C84.86 12.4, 79.59 5.18, 67.2 -3.65 M93.25 10.13 C86.3 3.06, 81.97 2.35, 78.71 -2.47 M92.63 9.21 C86.11 4.3, 81.68 0.86, 76.07 -7.19" stroke="#7950f2" stroke-width="1" fill="none"></path><path d="M-1.3 -2.37 C27.98 3.28, 53.74 -2.57, 88.74 1.31 M-0.79 1.91 C19.51 -1.62, 36.19 0, 89.6 0.33 M93.42 -3.2 C89.23 20.97, 93.88 45.31, 91.15 90.16 M91.28 0.44 C89.18 28.24, 91.15 59.64, 89.97 87.47 M91.06 88.95 C65.29 87.45, 41.38 83.89, -3.09 85.97 M90.05 85.45 C53.8 88.39, 17.26 87.44, -0.59 85.29 M-0.91 82.62 C-0.09 51.79, -3.68 20.39, 0.8 1.1 M-0.12 84.6 C-2.29 59.12, -1.5 35.41, 0.29 -1.86" stroke="#000000" stroke-width="2" fill="none"></path></g><g stroke-linecap="round" transform="translate(533.1560469352642 430.13535398482907) rotate(0 22.814072548414686 43.09324814700574)"><path d="M0 0 C0 0, 0 0, 0 0 M0 0 C0 0, 0 0, 0 0 M0.44 9.25 C-0.1 8.45, 4.58 8.33, 8.02 -2.76 M-0.3 11.94 C1.29 9.71, 5.68 6.42, 10.71 0.65 M-0.57 27.67 C4.77 19.48, 7.03 12.94, 23.92 -1.78 M0.41 23.63 C8.75 16.16, 14.25 6.57, 19.83 1.62 M0.72 34.72 C10.82 21.35, 24.4 9.09, 34.91 0.83 M0.16 38.52 C12.38 23.15, 21.38 10.21, 31.48 0.62 M3.72 45.94 C11.47 38.11, 18.32 28.08, 44.27 3.83 M-1.17 48.1 C11.38 35.55, 19.88 24.49, 42.33 -1.92 M1.14 63.09 C13.79 47.54, 26.51 30.11, 46.24 7.48 M0.18 62.11 C11.92 47.12, 20.91 38.61, 50.39 5.07 M1.94 70.21 C18.11 57.22, 32.87 36.49, 48.27 17.54 M-1.71 71.57 C14.6 58.1, 26.42 42.24, 49.51 14.61 M2.95 82.11 C18.61 64.52, 29.22 46.76, 47.05 31.48 M0.74 83.67 C18 64.68, 39.75 43.75, 49.12 26.18 M6.33 90.09 C22.11 76.19, 29.7 64.72, 45.78 44.11 M5.75 89.87 C14.98 79.8, 22.95 68.61, 50.98 41.73 M13.35 89.75 C30.73 79.17, 42.94 61.53, 52.18 51.99 M15.54 92.11 C23.26 83.85, 34.83 73.82, 51.01 52.51 M28.64 88.76 C32.14 79.85, 44.75 76.47, 46.91 65.7 M28.23 92.89 C36.41 82.21, 46.05 71.58, 51.14 65.72 M35.05 94.35 C40.5 86.31, 47.51 86.01, 46.52 74.72 M36.27 89.44 C41.55 84.34, 46.63 78.54, 49.87 75.62 M0.34 86.49 C0.34 86.49, 0.34 86.49, 0.34 86.49 M0.34 86.49 C0.34 86.49, 0.34 86.49, 0.34 86.49 M11.04 83.52 C11.02 82.12, 6.61 84.72, 3.18 75.03 M13.18 85.77 C7.6 84.1, 3.82 80.38, 1.42 76.85 M23.99 87.16 C18.84 81.91, 4.62 71.28, 2.37 62.36 M23.11 86.63 C19.82 78.67, 12.12 74.23, -0.1 65.53 M36.69 84.61 C26.6 76.36, 16.12 65.55, 3.12 56.8 M37.25 85.2 C22.96 75.78, 12.02 68.77, -1.01 56.06 M46.02 82.38 C35.4 70.05, 16.48 59.51, -2.21 45.37 M45.84 84.42 C33 69.46, 17.28 58.23, -0.99 45.79 M48 77.39 C26.41 55.06, 13.69 46.11, -1.37 33.33 M47.67 74.26 C30.92 59.77, 14.77 49.25, -0.87 32.39 M44.9 63.65 C26.78 48.01, 9.02 31.83, 2.74 19.71 M45.24 65.27 C32.33 49.74, 16.3 34.24, 1.55 24.2 M43.25 53.73 C31.19 43.98, 21.26 30.38, -3.67 13.05 M46.54 52.52 C31.49 41.66, 18.36 28.31, -0.66 10.36 M44.69 39.76 C38.16 31.07, 23.85 18.65, -1.06 -0.81 M47.43 42.86 C32.53 30.71, 15.84 15.63, 0.35 2.94 M50.2 33.13 C28.45 19.23, 13.42 -0.75, 8.25 -7.09 M47.51 33.08 C33.42 17.09, 17.14 6.79, 3.57 -5.01 M48.38 24.24 C43.03 17.46, 32.93 6.73, 14.3 -7.55 M46.06 20.02 C41.81 15.87, 31.49 9.22, 17.02 -6.59 M43.68 6.29 C45.06 3.19, 35.87 0.08, 26.65 -4.59 M45.83 10.68 C43.62 6.29, 40.95 5.49, 28.52 -6.74" stroke="#7950f2" stroke-width="1" fill="none"></path><path d="M-3.3 0.59 C13.78 -0.4, 30.11 2.58, 48.43 -3.44 M-0.62 -0.02 C13.06 -2.36, 24.75 1.07, 45.1 -1.22 M48.31 1.79 C43.23 23.08, 47.24 50.26, 46.54 86.19 M45.42 -1.33 C45.58 32.96, 43.07 65.07, 45.57 84.53 M48.8 89.51 C34.7 88.57, 26.99 89.02, 1.08 89.41 M46.87 85.24 C33.14 85.48, 18.6 84.82, 1.63 84.41 M3.15 85 C-0.91 63.25, 3.73 32.35, -1 0.82 M-0.29 84.6 C1.41 53.19, 1.07 18.16, 0.12 -0.68" stroke="#000000" stroke-width="2" fill="none"></path></g><g stroke-linecap="round" transform="translate(298.5347718501771 558.8493083744958) rotate(0 125.89988184125198 18.589244298708422)"><path d="M0 0 C0 0, 0 0, 0 0 M0 0 C0 0, 0 0, 0 0 M3.49 23.11 C8.64 16.09, 16.77 5.64, 21.45 -1.64 M-1.51 24 C3.94 17.81, 10.87 13.17, 20.37 1.22 M6.6 45.67 C21.34 23.74, 33.07 7.75, 46.49 0.85 M5.1 41.98 C19.08 27.77, 33.14 9.02, 43.8 -1.12 M28.69 43.09 C40.8 30.99, 55.21 11.6, 64.28 2.94 M25.95 41.06 C39.67 29.19, 51.81 11.77, 62.02 -0.47 M44.89 39.67 C60.07 29.14, 66.86 18.97, 81.93 0.98 M49.16 40.88 C61.72 29.59, 72.61 15.22, 84.85 0.58 M67.85 43.17 C80.18 29.07, 85.69 22.06, 110.04 -0.85 M71.25 43.61 C83.42 28.25, 94.38 14.27, 105.9 -1.1 M91.76 43.25 C99.74 31.05, 113.96 18.84, 129.84 -1.49 M91.54 39.92 C100.36 28.32, 113.91 16.87, 128.03 -0.46 M115.4 40.37 C125.97 30.36, 132.5 14.34, 151.56 -1.8 M109.64 41.62 C119.99 29.15, 133.01 19.51, 148.15 0.52 M136.56 39.12 C141.72 28.15, 155.58 20.07, 170.23 -3.79 M134.16 42.54 C142.15 33.58, 149.7 21.42, 171.36 1.28 M155.84 40.94 C166.25 22.51, 178.94 7.12, 192.06 -1.35 M152.92 42.88 C164.28 32.58, 175.64 18.41, 191.73 -0.5 M179 45.37 C182.47 30.34, 191.93 22.09, 209.53 0.71 M173.7 42.11 C188.8 25.45, 203.78 9.28, 213.73 -0.22 M200.1 39.03 C206.63 30.26, 215.31 18.52, 233.14 -1.04 M197.72 43.6 C205.3 34.48, 211.02 23, 234.42 1.44 M217.19 39.93 C228.14 24.7, 241.79 14.7, 249.86 5.05 M217.72 42.46 C231.19 25.47, 245.66 8.95, 252.19 -0.03 M240.13 45.66 C246.54 34.21, 252.62 33.32, 255.13 28.13 M240.14 41.46 C243.72 34.03, 248.44 31.17, 253.18 24.99" stroke="#888" stroke-width="2" fill="none"></path><path d="M2.03 -0.42 C67.69 2.96, 133.82 -0.25, 250.64 1.45 M-0.74 -0.49 C84.59 0.92, 170.94 0.73, 252.79 -0.88 M255.38 -2.77 C252.26 10.08, 248.79 19.88, 247.93 35.34 M250.33 -0.89 C252.64 11.15, 250.59 25.39, 252.05 35.87 M249.24 37.45 C164.34 39.89, 76.51 41.86, -2.79 35.11 M252.59 37.45 C185.92 32.47, 116.81 33.36, -0.27 36.87 M-3.44 35.91 C-0.7 27.53, -1.66 12.54, 1.65 -3.5 M-1.22 36.71 C0.84 23.98, 0.72 14.76, -1.83 -0.37" stroke="#000000" stroke-width="4" fill="none"></path></g><g stroke-linecap="round" transform="translate(770.6697077764313 443.88424916994734) rotate(0 81.10108703207425 18.589244298708422)"><path d="M0 0 C0 0, 0 0, 0 0 M0 0 C0 0, 0 0, 0 0 M4.17 27.34 C8.38 15.51, 13.19 16.25, 23.13 2.57 M0.08 23.13 C6.55 14.77, 13.75 6.91, 20.34 -1.28 M2.12 38.13 C10.19 31.7, 18.54 21.88, 39.28 -3.71 M6.95 40.5 C19.19 26.01, 33.14 6.6, 44.39 -0.96 M29.51 46 C38.84 27.51, 54.62 14.15, 62.91 0.83 M27.79 43.14 C34.39 32.46, 45.91 22.89, 63.81 -1.77 M51.36 38.29 C61.61 30.24, 71.76 10.34, 87.2 0.62 M46.52 40.07 C64.52 26.8, 77.63 10.71, 85 1.67 M70.3 45 C77.91 33.3, 82.89 21.93, 109.46 -1.38 M71.32 43.4 C81.71 28.11, 95.82 13.34, 105.73 -0.95 M91.08 44.65 C100.93 29.25, 116.08 12.29, 126.68 0.82 M90.74 40.55 C107.6 26.76, 119.62 9.34, 126.38 -0.76 M108.11 44.79 C125.13 31.7, 138.9 16.17, 150.41 -3.04 M112.95 41.09 C122.01 31.27, 130.22 20.46, 148.45 1.39 M136.4 38.72 C140.3 30.44, 152.65 23.47, 163.81 0.61 M132.23 43.89 C143.92 30.17, 152.2 18.6, 167.2 5.36 M155.72 41.84 C158.92 38.46, 164.22 35.89, 168.55 30.78 M152.94 43.71 C158.58 36.67, 162.54 32.54, 166.27 27.91" stroke="#888" stroke-width="2" fill="none"></path><path d="M1.81 -1.69 C34.38 -1.69, 73.69 1.63, 163.55 -3.12 M1.81 0.99 C37.9 3.41, 74.05 0.75, 162.91 0.62 M164.41 -3.14 C160.63 11.2, 159.18 20.51, 164.92 34.47 M162.52 -1 C161.93 12.08, 162.75 25.68, 161.47 38.87 M165.62 34.01 C108.14 38.94, 55.81 38.6, -1.63 34.12 M160.98 38.18 C118.14 40.64, 75.65 40.67, 0.41 38.02 M-3.28 41.02 C2.89 28.54, -0.97 16.21, 0.74 3.9 M0.44 37.09 C2.12 30.85, 2.3 22.85, -0.29 1.81" stroke="#000000" stroke-width="4" fill="none"></path></g><g stroke-linecap="round"><g transform="translate(362.9187968237344 112.81836199296384) rotate(0 7.963136128542317 -40.257867290828614)"><path d="M2.27 2.22 C4.91 -11.67, 11.96 -68.86, 13.66 -82.73" stroke="#000000" stroke-width="1.5" fill="none" stroke-dasharray="8 9"></path></g><g transform="translate(362.9187968237344 112.81836199296384) rotate(0 7.963136128542317 -40.257867290828614)"><path d="M23.54 -50.17 C17.95 -58.23, 18.88 -64.27, 14.74 -79.51" stroke="#000000" stroke-width="1.5" fill="none"></path></g><g transform="translate(362.9187968237344 112.81836199296384) rotate(0 7.963136128542317 -40.257867290828614)"><path d="M3.17 -52.7 C2.12 -60.53, 7.56 -66, 14.74 -79.51" stroke="#000000" stroke-width="1.5" fill="none"></path></g></g><g stroke-linecap="round"><g transform="translate(288.46234384972325 167.78274784324606) rotate(0 -34.70417184834719 -17.69884044138246)"><path d="M-1.42 -1.32 C-12.34 -6.98, -56.32 -29.06, -67.99 -34.08" stroke="#000000" stroke-width="1.5" fill="none" stroke-dasharray="8 9"></path></g><g transform="translate(288.46234384972325 167.78274784324606) rotate(0 -34.70417184834719 -17.69884044138246)"><path d="M-40 -28.21 C-45.61 -34.02, -48.16 -29.96, -70.8 -35.08" stroke="#000000" stroke-width="1.5" fill="none"></path></g><g transform="translate(288.46234384972325 167.78274784324606) rotate(0 -34.70417184834719 -17.69884044138246)"><path d="M-48.74 -9.64 C-52.49 -19.29, -53.19 -19.15, -70.8 -35.08" stroke="#000000" stroke-width="1.5" fill="none"></path></g></g><g stroke-linecap="round"><g transform="translate(327.0132968055232 267.1135859676723) rotate(0 -49.594977586371414 3.733506828160415)"><path d="M1.87 1.16 C-15.15 2.28, -84.22 5.22, -101.06 6.31" stroke="#000000" stroke-width="1.5" fill="none" stroke-dasharray="8 9"></path></g><g transform="translate(327.0132968055232 267.1135859676723) rotate(0 -49.594977586371414 3.733506828160415)"><path d="M-71.79 -4.37 C-81.66 2.69, -89.07 1.6, -100.56 9.46" stroke="#000000" stroke-width="1.5" fill="none"></path></g><g transform="translate(327.0132968055232 267.1135859676723) rotate(0 -49.594977586371414 3.733506828160415)"><path d="M-70.72 16.12 C-80.89 16.25, -88.67 8.21, -100.56 9.46" stroke="#000000" stroke-width="1.5" fill="none"></path></g></g><g stroke-linecap="round"><g transform="translate(304.4564365759849 467.93729275820795) rotate(0 -57.09360302136548 10.252945361459183)"><path d="M-2.28 0.76 C-20.89 3.85, -93.47 16.06, -111.91 19.75" stroke="#000000" stroke-width="1.5" fill="none" stroke-dasharray="8 9"></path></g><g transform="translate(304.4564365759849 467.93729275820795) rotate(0 -57.09360302136548 10.252945361459183)"><path d="M-84.93 7.27 C-95.12 9.84, -98.12 9.87, -111.62 18.85" stroke="#000000" stroke-width="1.5" fill="none"></path></g><g transform="translate(304.4564365759849 467.93729275820795) rotate(0 -57.09360302136548 10.252945361459183)"><path d="M-81.25 27.46 C-92.68 24.1, -96.75 18.26, -111.62 18.85" stroke="#000000" stroke-width="1.5" fill="none"></path></g></g><g stroke-linecap="round"><g transform="translate(292.15655363329194 593.8211562851887) rotate(0 -42.342124282553385 9.041069408871863)"><path d="M-2.06 -0.58 C-15.62 2.6, -68.71 15.44, -82.62 18.66" stroke="#000000" stroke-width="1.5" fill="none" stroke-dasharray="8 9"></path></g><g transform="translate(292.15655363329194 593.8211562851887) rotate(0 -42.342124282553385 9.041069408871863)"><path d="M-58.38 3.61 C-67.84 3.29, -74.07 14.03, -85.6 20.91" stroke="#000000" stroke-width="1.5" fill="none"></path></g><g transform="translate(292.15655363329194 593.8211562851887) rotate(0 -42.342124282553385 9.041069408871863)"><path d="M-53.65 23.57 C-64.25 18.11, -71.68 23.77, -85.6 20.91" stroke="#000000" stroke-width="1.5" fill="none"></path></g></g><g transform="translate(302.3710819125282 10) rotate(0 84.49999999999997 10)"><text x="0" y="14" font-family="Virgil, Segoe UI Emoji" font-size="16px" fill="#000000" text-anchor="start" style="white-space: pre;" direction="ltr">Bienvenida al usuario</text></g><g transform="translate(45.36746958619278 97.2397583126093) rotate(0 98 50)"><text x="0" y="14" font-family="Virgil, Segoe UI Emoji" font-size="16px" fill="#000000" text-anchor="start" style="white-space: pre;" direction="ltr">Ubicacin actual</text><text x="0" y="34" font-family="Virgil, Segoe UI Emoji" font-size="16px" fill="#000000" text-anchor="start" style="white-space: pre;" direction="ltr">Feature: </text><text x="0" y="54" font-family="Virgil, Segoe UI Emoji" font-size="16px" fill="#000000" text-anchor="start" style="white-space: pre;" direction="ltr">- Con esta informacin,</text><text x="0" y="74" font-family="Virgil, Segoe UI Emoji" font-size="16px" fill="#000000" text-anchor="start" style="white-space: pre;" direction="ltr">la aplicacin condicionar</text><text x="0" y="94" font-family="Virgil, Segoe UI Emoji" font-size="16px" fill="#000000" text-anchor="start" style="white-space: pre;" direction="ltr">el contenido mostrado</text></g><g transform="translate(26.504819140223276 251.67770883898504) rotate(0 99 30)"><text x="0" y="14" font-family="Virgil, Segoe UI Emoji" font-size="16px" fill="#000000" text-anchor="start" style="white-space: pre;" direction="ltr">Imagen introductoria que</text><text x="0" y="34" font-family="Virgil, Segoe UI Emoji" font-size="16px" fill="#000000" text-anchor="start" style="white-space: pre;" direction="ltr">d una idea al usuario</text><text x="0" y="54" font-family="Virgil, Segoe UI Emoji" font-size="16px" fill="#000000" text-anchor="start" style="white-space: pre;" direction="ltr">de qu trata la app</text></g><g transform="translate(10 412.01023762972636) rotate(0 105 70)"><text x="0" y="14" font-family="Virgil, Segoe UI Emoji" font-size="16px" fill="#000000" text-anchor="start" style="white-space: pre;" direction="ltr">Opciones que posee el</text><text x="0" y="34" font-family="Virgil, Segoe UI Emoji" font-size="16px" fill="#000000" text-anchor="start" style="white-space: pre;" direction="ltr">usuario dentro de la app</text><text x="0" y="54" font-family="Virgil, Segoe UI Emoji" font-size="16px" fill="#000000" text-anchor="start" style="white-space: pre;" direction="ltr">- Scan a code</text><text x="0" y="74" font-family="Virgil, Segoe UI Emoji" font-size="16px" fill="#000000" text-anchor="start" style="white-space: pre;" direction="ltr">- View solved puzzles</text><text x="0" y="94" font-family="Virgil, Segoe UI Emoji" font-size="16px" fill="#000000" text-anchor="start" style="white-space: pre;" direction="ltr">- Global Score</text><text x="0" y="114" font-family="Virgil, Segoe UI Emoji" font-size="16px" fill="#000000" text-anchor="start" style="white-space: pre;" direction="ltr">Es un rail deslizable hacia</text><text x="0" y="134" font-family="Virgil, Segoe UI Emoji" font-size="16px" fill="#000000" text-anchor="start" style="white-space: pre;" direction="ltr">la derecha</text></g><g transform="translate(73.66144525514727 613.604814271026) rotate(0 62.5 10)"><text x="0" y="14" font-family="Virgil, Segoe UI Emoji" font-size="16px" fill="#000000" text-anchor="start" style="white-space: pre;" direction="ltr">Iinicio de sesin</text></g><g transform="translate(1335.101193829362 256.3933714504775) rotate(0 105 70)"><text x="0" y="14" font-family="Virgil, Segoe UI Emoji" font-size="16px" fill="#000000" text-anchor="start" style="white-space: pre;" direction="ltr">Opciones que posee el</text><text x="0" y="34" font-family="Virgil, Segoe UI Emoji" font-size="16px" fill="#000000" text-anchor="start" style="white-space: pre;" direction="ltr">usuario dentro de la app</text><text x="0" y="54" font-family="Virgil, Segoe UI Emoji" font-size="16px" fill="#000000" text-anchor="start" style="white-space: pre;" direction="ltr">- Scan a code</text><text x="0" y="74" font-family="Virgil, Segoe UI Emoji" font-size="16px" fill="#000000" text-anchor="start" style="white-space: pre;" direction="ltr">- View solved puzzles</text><text x="0" y="94" font-family="Virgil, Segoe UI Emoji" font-size="16px" fill="#000000" text-anchor="start" style="white-space: pre;" direction="ltr">- Global Score</text><text x="0" y="114" font-family="Virgil, Segoe UI Emoji" font-size="16px" fill="#000000" text-anchor="start" style="white-space: pre;" direction="ltr">Es un rail deslizable hacia</text><text x="0" y="134" font-family="Virgil, Segoe UI Emoji" font-size="16px" fill="#000000" text-anchor="start" style="white-space: pre;" direction="ltr">ABAJO</text></g><g stroke-linecap="round"><g transform="translate(1219.5674598477985 350.99890558227503) rotate(0 52.76669257199285 -20.072912468998055)"><path d="M1.74 0.99 C19.11 -6.18, 86.94 -34.46, 103.79 -41.14" stroke="#000000" stroke-width="1.5" fill="none" stroke-dasharray="8 9"></path></g><g transform="translate(1219.5674598477985 350.99890558227503) rotate(0 52.76669257199285 -20.072912468998055)"><path d="M82.99 -17.55 C88.5 -24.85, 97.73 -31.56, 103.33 -40.2" stroke="#000000" stroke-width="1.5" fill="none"></path></g><g transform="translate(1219.5674598477985 350.99890558227503) rotate(0 52.76669257199285 -20.072912468998055)"><path d="M75.24 -36.55 C83.21 -38.54, 94.65 -39.84, 103.33 -40.2" stroke="#000000" stroke-width="1.5" fill="none"></path></g></g></svg>